<svg version="1.1" id="Layer_1" xmlns="http://www.w3.org/2000/svg" xmlns:xlink="http://www.w3.org/1999/xlink" x="0px" y="0px"
	 width="100%" viewBox="0 0 587 739" enable-background="new 0 0 587 739" xml:space="preserve">
<path fill="#FEFEFE" opacity="1.000000" stroke="none" 
	d="
M179.000000,740.000000 
	C119.677086,740.000000 60.354172,740.000000 1.015628,740.000000 
	C1.015628,493.720337 1.015628,247.440674 1.015628,1.080510 
	C196.578598,1.080510 392.157257,1.080510 587.867920,1.080510 
	C587.867920,247.333282 587.867920,493.666626 587.867920,740.000000 
	C525.571045,740.000000 463.248169,740.000000 400.451904,739.589478 
	C396.419617,720.288635 388.986267,702.734558 381.335205,684.818970 
	C381.225189,684.122559 381.157501,683.848083 381.159668,683.622681 
	C381.229553,683.671753 381.125427,683.546936 380.793396,683.306030 
	C379.643311,683.039001 378.825226,683.012878 378.194458,682.625793 
	C379.493683,682.091797 380.605591,681.918762 382.138794,681.680176 
	C381.428070,673.961731 380.849976,666.375305 379.916199,658.832947 
	C379.760803,657.577881 378.056366,656.514526 377.419983,655.232666 
	C378.261749,651.066284 373.549774,646.749878 369.786774,647.967896 
	C351.801605,653.789368 333.835571,659.670532 315.890564,665.614441 
	C314.796936,665.976685 313.942932,667.062439 312.585907,667.883789 
	C304.993103,670.601624 300.852509,665.291931 296.083435,661.410217 
	C297.408661,659.864136 298.662811,658.621155 299.968231,657.434631 
	C305.312866,652.576538 310.673126,647.735718 316.479645,642.796509 
	C330.788757,641.528015 344.644684,640.337341 358.503387,639.179871 
	C369.314178,638.276917 378.634186,634.731628 382.833862,623.777344 
	C384.160370,620.317261 384.064453,616.202942 384.090118,612.384521 
	C384.114227,608.784424 382.838318,605.120544 383.183929,601.587463 
	C384.430084,588.849121 386.105774,576.152466 387.644165,563.443115 
	C390.586456,539.135193 392.793304,514.806030 390.050568,490.309875 
	C389.369659,484.228241 388.773010,478.137177 388.361389,472.245728 
	C388.918976,473.127960 389.252777,473.814911 389.973511,475.298065 
	C401.075989,462.935730 411.655151,450.799957 422.621277,439.024597 
	C441.525513,418.725311 460.769714,398.671692 475.361938,374.911011 
	C481.396759,365.084473 485.918579,354.328735 491.488586,343.994080 
	C494.899994,341.651550 497.951416,339.310516 501.303253,336.886230 
	C501.677734,335.276672 501.751801,333.750336 501.847473,331.831940 
	C501.899017,329.267975 501.928925,327.096130 502.306580,324.906647 
	C507.996094,318.861450 513.734863,313.136139 518.601074,306.746399 
	C530.551086,291.054932 540.487854,274.331818 542.621704,253.750122 
	C545.473938,247.087357 548.082825,240.711349 550.822083,234.391785 
	C551.861389,231.993912 552.637573,229.028030 554.503235,227.522781 
	C561.644836,221.760818 569.430481,216.716721 572.464905,207.328918 
	C572.595825,206.923920 573.119324,206.422195 573.519958,206.361481 
	C579.746338,205.417557 577.626587,201.375900 577.092041,197.779083 
	C577.535278,196.375656 578.174744,194.705185 577.630127,193.640366 
	C575.916748,190.290375 573.883606,187.079697 571.712280,183.999802 
	C570.813049,182.724365 569.249146,181.917587 567.960693,180.539047 
	C565.700195,174.503189 561.872437,171.568710 555.276978,172.654465 
	C554.270264,169.564911 553.512085,166.789459 552.840454,163.548645 
	C552.950134,119.676559 553.063965,76.269394 552.854614,32.863792 
	C552.833984,28.581915 550.834595,24.309582 549.737915,19.786148 
	C549.513306,19.179487 549.228027,19.102510 548.525757,19.054356 
	C546.597351,18.506506 545.010986,17.964434 543.421448,17.955107 
	C487.304779,17.625765 431.188141,17.180817 375.070953,17.095219 
	C265.149719,16.927551 155.228149,16.957464 45.306713,16.935963 
	C39.814735,16.934887 34.321442,17.188318 28.831654,17.398695 
	C27.587536,17.446373 26.355494,17.809143 24.891747,18.066664 
	C24.891747,24.536474 24.891747,30.690123 24.481369,36.927879 
	C23.705473,37.820057 23.031647,38.623196 23.018646,39.436893 
	C22.354479,81.013603 21.746584,122.591217 20.775093,164.180237 
	C19.375185,165.569839 17.987642,166.804443 17.345491,168.348953 
	C12.526568,179.939423 7.953282,191.632645 3.072804,203.196487 
	C1.721082,206.399292 2.296242,208.427536 5.284941,210.301178 
	C7.861902,212.777054 10.405354,214.923569 12.975615,217.047516 
	C13.002422,217.024948 12.932400,217.027832 12.808546,217.341354 
	C13.125947,218.134201 13.567203,218.613525 14.164715,219.385345 
	C18.576569,225.511292 23.796700,230.881638 26.870132,237.282715 
	C31.954483,247.871918 35.653305,259.126221 39.939125,270.098999 
	C48.747406,292.650421 59.268047,314.194489 76.208199,332.269562 
	C77.726875,334.702759 79.348061,336.766296 81.012718,339.182800 
	C85.604385,345.815063 90.373062,351.948090 94.656372,358.403168 
	C104.560249,373.328735 112.739952,389.696808 124.342865,403.126465 
	C141.654160,423.163177 161.311264,441.173218 180.115448,460.349121 
	C183.243622,463.116364 186.226669,465.579987 189.148712,468.452881 
	C188.450958,475.231354 187.651672,481.590302 187.249100,487.974274 
	C187.060349,490.967621 187.636566,494.009186 187.778809,497.497986 
	C187.453186,500.081116 186.893524,502.215363 187.025116,504.306122 
	C188.741196,531.570312 190.406174,558.839294 192.400085,586.083923 
	C193.612534,602.650818 195.370758,619.177795 196.886490,635.751953 
	C211.783173,637.566650 226.292236,639.334167 240.679443,641.480225 
	C241.362778,642.289062 242.121811,642.928345 242.980164,643.117981 
	C253.551193,645.452576 264.152710,647.652405 274.700989,650.083679 
	C276.239441,650.438232 278.352661,651.524109 278.803925,652.775208 
	C280.244385,656.768372 281.027100,660.998840 281.971832,665.354858 
	C281.676697,665.835205 281.410797,665.991394 280.690613,665.987305 
	C252.187897,658.168091 224.076630,650.402283 195.002396,642.370422 
	C196.166290,648.788757 197.097733,653.925232 197.986160,659.443359 
	C191.628769,686.550110 185.314377,713.275024 179.000000,740.000000 
z"/>
<path fill="#325579" opacity="1.000000" stroke="none" 
	d="
M378.007172,682.986694 
	C378.825226,683.012878 379.643311,683.039001 380.808838,683.310913 
	C381.156342,683.556641 381.089783,683.573547 381.089783,683.573547 
	C381.157501,683.848083 381.225189,684.122559 381.209351,685.180298 
	C381.376465,689.740295 381.737701,693.513550 381.855316,697.294373 
	C382.119019,705.771667 382.048279,714.255371 376.686829,721.482666 
	C374.678314,724.190063 372.138458,726.503296 369.030487,729.875549 
	C372.032623,729.875549 374.435425,730.166321 376.743164,729.821228 
	C383.807434,728.764893 383.789246,728.671387 386.236145,735.357788 
	C386.804993,736.912231 387.411072,738.452942 388.000000,740.000000 
	C358.312439,740.000000 328.624878,740.000000 298.519318,739.654358 
	C303.618195,735.239746 309.135040,731.170715 314.598358,727.141296 
	C313.032135,724.205139 313.734497,719.572754 309.227356,721.144897 
	C309.227356,716.523254 309.227356,712.064392 309.227356,706.383850 
	C306.732910,710.084229 304.796906,712.956177 302.860901,715.828125 
	C302.329041,715.785950 301.797180,715.743774 301.265350,715.701660 
	C301.064789,710.958923 300.849243,706.216736 300.668945,701.473267 
	C300.551392,698.379761 302.786285,694.606506 298.817261,692.558472 
	C292.606201,689.353577 286.211456,686.504639 279.048584,683.103149 
	C283.567322,695.974731 284.435944,709.064453 290.294525,720.776733 
	C290.856567,721.900452 290.445038,724.718567 289.668518,725.103821 
	C285.372681,727.235657 281.113678,730.395386 275.837036,727.142273 
	C274.696655,726.439209 272.427460,726.377930 271.294708,727.053955 
	C265.865234,730.294495 260.647522,733.889771 255.179184,737.474060 
	C256.557098,738.707947 257.278534,739.354004 258.000000,740.000000 
	C235.979111,740.000000 213.958206,740.000000 191.494598,739.673340 
	C192.533585,735.675781 194.015274,732.004883 195.101105,729.314697 
	C201.563843,729.314697 206.834900,729.314697 211.635345,729.314697 
	C201.337769,722.998230 200.651276,723.184875 198.448380,715.709167 
	C196.857819,710.311462 198.196777,704.068420 196.707672,698.618103 
	C195.058029,692.580383 198.479156,689.796387 201.929321,686.605347 
	C203.367462,685.275146 205.641327,684.626831 206.645905,683.087952 
	C210.967590,676.467712 214.959030,669.631836 219.473907,662.902588 
	C222.236938,662.726440 224.620850,662.210022 226.951141,662.389587 
	C230.653107,662.674866 234.319275,663.424744 238.383759,664.068909 
	C240.848587,664.458679 242.930267,664.757690 245.324310,665.276550 
	C253.982880,667.276672 262.338013,669.016357 270.671814,670.852966 
	C275.419098,671.899231 279.174438,671.027100 281.082062,666.040710 
	C281.410797,665.991394 281.676697,665.835205 282.358154,665.311401 
	C287.236328,663.946838 291.636108,662.843018 296.035919,661.739258 
	C300.852509,665.291931 304.993103,670.601624 313.006073,667.957520 
	C327.160614,666.464111 340.290527,662.112000 354.333130,665.010376 
	C358.950745,666.016235 360.372772,668.559875 360.106995,672.940796 
	C359.735535,679.063049 363.940155,682.951904 370.159546,682.994324 
	C372.775269,683.012207 375.391296,682.990479 378.007172,682.986694 
z"/>
<path fill="#1D3552" opacity="1.000000" stroke="none" 
	d="
M258.468628,740.000000 
	C257.278534,739.354004 256.557098,738.707947 255.179184,737.474060 
	C260.647522,733.889771 265.865234,730.294495 271.294708,727.053955 
	C272.427460,726.377930 274.696655,726.439209 275.837036,727.142273 
	C281.113678,730.395386 285.372681,727.235657 289.668518,725.103821 
	C290.445038,724.718567 290.856567,721.900452 290.294525,720.776733 
	C284.435944,709.064453 283.567322,695.974731 279.048584,683.103149 
	C286.211456,686.504639 292.606201,689.353577 298.817261,692.558472 
	C302.786285,694.606506 300.551392,698.379761 300.668945,701.473267 
	C300.849243,706.216736 301.064789,710.958923 301.265350,715.701660 
	C301.797180,715.743774 302.329041,715.785950 302.860901,715.828125 
	C304.796906,712.956177 306.732910,710.084229 309.227356,706.383850 
	C309.227356,712.064392 309.227356,716.523254 309.227356,721.144897 
	C313.734497,719.572754 313.032135,724.205139 314.598358,727.141296 
	C309.135040,731.170715 303.618195,735.239746 298.050659,739.654358 
	C284.979095,740.000000 271.958221,740.000000 258.468628,740.000000 
M305.417572,721.691833 
	C305.691650,721.978760 305.965698,722.265686 306.239746,722.552612 
	C306.358368,722.438293 306.586823,722.231506 306.579742,722.223145 
	C306.324799,721.920471 306.047882,721.636292 305.417572,721.691833 
z"/>
<path fill="#2A4360" opacity="1.000000" stroke="none" 
	d="
M219.070724,662.874512 
	C214.959030,669.631836 210.967590,676.467712 206.645905,683.087952 
	C205.641327,684.626831 203.367462,685.275146 201.929321,686.605347 
	C198.479156,689.796387 195.058029,692.580383 196.707672,698.618103 
	C198.196777,704.068420 196.857819,710.311462 198.448380,715.709167 
	C200.651276,723.184875 201.337769,722.998230 211.635345,729.314697 
	C206.834900,729.314697 201.563843,729.314697 195.101105,729.314697 
	C194.015274,732.004883 192.533585,735.675781 191.025940,739.673340 
	C187.307098,740.000000 183.614182,740.000000 179.460632,740.000000 
	C185.314377,713.275024 191.628769,686.550110 198.270325,659.258179 
	C200.844437,657.026611 202.901566,654.964783 205.378433,653.781494 
	C210.308273,651.426392 219.023651,657.386597 219.070724,662.874512 
z"/>
<path fill="#2F4662" opacity="1.000000" stroke="none" 
	d="
M388.460632,740.000000 
	C387.411072,738.452942 386.804993,736.912231 386.236145,735.357788 
	C383.789246,728.671387 383.807434,728.764893 376.743164,729.821228 
	C374.435425,730.166321 372.032623,729.875549 369.030487,729.875549 
	C372.138458,726.503296 374.678314,724.190063 376.686829,721.482666 
	C382.048279,714.255371 382.119019,705.771667 381.855316,697.294373 
	C381.737701,693.513550 381.376465,689.740295 381.251648,685.602295 
	C388.986267,702.734558 396.419617,720.288635 399.989258,739.589478 
	C396.307098,740.000000 392.614166,740.000000 388.460632,740.000000 
z"/>
<path fill="#6B0804" opacity="1.000000" stroke="none" 
	d="
M388.137634,472.050446 
	C388.773010,478.137177 389.369659,484.228241 390.050568,490.309875 
	C392.793304,514.806030 390.586456,539.135193 387.644165,563.443115 
	C386.105774,576.152466 384.430084,588.849121 383.183929,601.587463 
	C382.838318,605.120544 384.114227,608.784424 384.090118,612.384521 
	C384.064453,616.202942 384.160370,620.317261 382.833862,623.777344 
	C378.634186,634.731628 369.314178,638.276917 358.503387,639.179871 
	C344.644684,640.337341 330.788757,641.528015 316.108582,642.620605 
	C290.457489,642.058472 265.629395,641.580017 240.801315,641.101624 
	C226.292236,639.334167 211.783173,637.566650 196.886490,635.751953 
	C195.370758,619.177795 193.612534,602.650818 192.400085,586.083923 
	C190.406174,558.839294 188.741196,531.570312 187.025116,504.306122 
	C186.893524,502.215363 187.453186,500.081116 188.104477,497.481323 
	C189.797897,496.358826 191.566315,496.059418 192.278275,495.029602 
	C196.365845,489.117706 201.333008,483.465973 203.850861,476.901062 
	C207.329193,467.831757 208.973221,458.048065 211.258545,448.535675 
	C212.940567,441.534393 211.759750,438.969360 205.395798,434.576111 
	C205.492218,430.902496 205.703888,427.654907 205.979675,424.412781 
	C206.586731,417.276093 207.226166,410.142151 207.933655,402.602600 
	C208.356461,399.822052 208.698013,397.446014 209.288681,394.902832 
	C210.381470,393.912354 211.225128,393.088959 212.503967,392.124146 
	C215.043777,392.035065 217.202148,391.803253 219.243698,392.189270 
	C227.824448,393.811646 236.370255,395.618683 245.034439,397.667358 
	C248.539001,403.010559 251.952347,408.034912 255.332794,413.081299 
	C258.515564,417.832611 261.663635,422.607178 264.906464,427.682129 
	C266.634735,429.339630 268.283539,430.686462 270.017242,432.365692 
	C273.644501,437.074097 277.156616,441.475220 280.750031,445.808929 
	C281.674316,446.923615 282.687469,448.294312 283.946777,448.744080 
	C289.230682,450.631317 298.003174,447.023651 301.299377,441.793365 
	C304.539276,436.161469 307.493958,430.717438 310.681641,425.041443 
	C316.300049,416.555389 321.685516,408.301300 327.039398,400.029694 
	C327.007812,400.012146 327.019440,400.083466 327.366577,399.971680 
	C327.827759,399.392426 327.941803,398.924988 328.311981,398.430817 
	C329.043732,397.578064 329.519318,396.752014 330.226501,395.567505 
	C331.670624,394.778595 332.851501,394.148987 334.100922,393.950073 
	C342.270020,392.649353 350.453979,391.441803 358.797119,390.503418 
	C362.310699,394.200897 365.660248,397.598785 369.025085,401.428833 
	C369.264282,404.618500 369.488159,407.376038 369.630127,410.553711 
	C370.527710,415.242401 371.507202,419.510925 372.554718,424.231049 
	C373.059113,428.141663 373.273743,431.646790 373.980865,435.049561 
	C375.221771,441.020721 376.294891,447.158142 381.844604,451.467468 
	C383.981506,455.534149 386.037079,459.249908 388.089355,463.420166 
	C388.103210,466.599884 388.120422,469.325165 388.137634,472.050446 
z"/>
<path fill="#F1C191" opacity="1.000000" stroke="none" 
	d="
M76.310707,331.899933 
	C59.268047,314.194489 48.747406,292.650421 39.939125,270.098999 
	C35.653305,259.126221 31.954483,247.871918 26.870132,237.282715 
	C23.796700,230.881638 18.576569,225.511292 14.148853,219.068314 
	C13.628623,217.981812 13.280509,217.504822 12.932398,217.027832 
	C12.932400,217.027832 13.002422,217.024948 12.962085,216.694168 
	C11.839291,214.712936 11.008769,212.783264 9.591184,211.504242 
	C8.539711,210.555527 6.725747,210.451889 5.251431,209.971817 
	C2.296242,208.427536 1.721082,206.399292 3.072804,203.196487 
	C7.953282,191.632645 12.526568,179.939423 17.345491,168.348953 
	C17.987642,166.804443 19.375185,165.569839 20.991947,164.331604 
	C22.006981,165.024033 22.447599,165.576599 22.973145,166.461075 
	C24.996552,168.571091 26.935032,170.349182 29.067844,172.367218 
	C30.675446,173.330368 32.088711,174.053558 33.583241,175.220886 
	C33.221191,180.261520 33.076477,184.913681 32.232964,189.435516 
	C31.638893,192.620148 32.370388,194.870499 34.786797,196.765350 
	C37.493614,198.887939 40.212006,200.995773 42.845444,203.446213 
	C38.590405,205.860382 34.415283,207.938385 28.991774,210.637711 
	C37.883472,212.624893 45.415901,214.308304 53.175407,216.270050 
	C54.579041,217.540131 56.494888,218.333511 56.822090,219.553116 
	C62.415283,240.400955 75.178825,256.847137 89.037270,272.650665 
	C95.487595,280.006348 102.015533,287.299896 108.228470,294.851837 
	C109.245842,296.088440 109.729225,299.353241 108.900795,300.265808 
	C102.791039,306.996277 96.285675,313.367615 89.536964,319.893494 
	C82.922646,320.977478 79.730156,324.876373 78.600548,331.038208 
	C77.661079,331.382965 76.985893,331.641449 76.310707,331.899933 
z"/>
<path fill="#F9CB9A" opacity="1.000000" stroke="none" 
	d="
M576.746399,197.789200 
	C577.626587,201.375900 579.746338,205.417557 573.519958,206.361481 
	C573.119324,206.422195 572.595825,206.923920 572.464905,207.328918 
	C569.430481,216.716721 561.644836,221.760818 554.503235,227.522781 
	C552.637573,229.028030 551.861389,231.993912 550.822083,234.391785 
	C548.082825,240.711349 545.473938,247.087357 542.270264,253.866699 
	C529.788696,272.248138 517.849976,290.203796 505.702637,308.234650 
	C505.243988,308.491882 505.075073,308.731262 504.989960,309.010986 
	C504.992615,308.994019 505.025452,308.983826 504.775360,309.155823 
	C504.348297,309.895691 504.171326,310.463501 503.994202,311.013245 
	C503.994019,310.995148 504.029175,310.986328 503.796204,311.091309 
	C503.370972,311.473511 503.178741,311.750732 502.989441,312.010834 
	C502.992310,311.993744 503.025421,311.983398 502.773285,312.154114 
	C502.345947,312.893066 502.170746,313.461304 501.993530,314.012146 
	C501.991547,313.994690 502.025024,313.984161 501.764679,314.145569 
	C501.334412,314.881744 501.164490,315.456512 500.994141,316.013306 
	C500.993744,315.995331 501.029572,315.992157 500.678528,316.029663 
	C499.883728,317.054474 499.440002,318.041840 498.994904,319.011932 
	C498.993530,318.994659 499.028107,318.993896 498.704010,319.023285 
	C497.587006,320.038849 496.794067,321.025055 495.624756,322.008362 
	C493.795258,321.727020 492.342102,321.448578 490.556152,321.079346 
	C484.615417,315.897461 478.472351,311.269409 473.551971,305.583313 
	C468.756653,300.041748 469.622192,295.300507 474.757721,289.772278 
	C480.867462,283.195343 486.964172,276.602051 493.230988,270.176208 
	C504.424530,258.698639 513.708984,245.913315 520.274536,231.251526 
	C521.364502,228.817444 521.175293,225.493256 522.805115,223.690567 
	C525.432373,220.784698 524.911560,218.694580 523.233276,216.052612 
	C529.795166,213.973389 535.960449,212.027008 542.497559,210.050369 
	C545.382629,208.436874 549.779663,209.711151 550.494934,205.057495 
	C548.929932,204.141998 547.477966,203.292603 545.743652,202.278061 
	C547.335571,200.284973 548.628784,198.665863 549.585144,197.468460 
	C548.197021,194.587769 547.031433,192.169052 546.111511,189.513016 
	C551.392212,187.290451 554.672729,184.191742 554.198853,178.174408 
	C554.065735,176.484436 555.052429,174.706284 555.525513,172.968567 
	C561.872437,171.568710 565.700195,174.503189 567.987976,180.910797 
	C569.464783,184.886322 570.723022,188.217743 572.365112,191.347809 
	C573.563599,193.632355 575.267700,195.651672 576.746399,197.789200 
M565.826660,196.887619 
	C560.220642,196.581085 554.729065,196.500214 552.300476,205.403290 
	C558.319885,202.421051 563.217896,199.994370 568.115967,197.567688 
	C567.612122,197.339828 567.108276,197.111969 565.826660,196.887619 
M570.466797,196.593018 
	C570.466797,196.593018 570.387939,196.480392 570.466797,196.593018 
z"/>
<path fill="#6D4A2A" opacity="1.000000" stroke="none" 
	d="
M555.276978,172.654465 
	C555.052429,174.706284 554.065735,176.484436 554.198853,178.174408 
	C554.672729,184.191742 551.392212,187.290451 545.733398,189.552521 
	C543.852112,189.822372 542.594421,189.815430 541.174438,189.376816 
	C540.943848,186.951752 540.815796,184.958328 540.816101,182.964951 
	C540.824890,133.001221 540.788574,83.037277 540.964111,33.074093 
	C540.980408,28.432789 539.854126,26.142847 534.879028,26.426701 
	C531.650940,25.381281 528.513123,24.097567 525.373535,24.093094 
	C447.390747,23.981922 369.407806,24.005945 291.424866,24.005951 
	C212.775436,24.005955 134.125854,23.952988 55.476936,24.154751 
	C51.333694,24.165380 47.195988,26.335348 42.599815,27.627140 
	C40.265610,27.634289 38.387295,27.514347 36.153629,27.371716 
	C36.153629,30.086155 36.144085,32.227440 36.155045,34.368618 
	C36.355358,73.492584 36.736446,112.617126 36.607613,151.739990 
	C36.582317,159.422241 34.588108,167.098007 33.501976,174.776764 
	C32.088711,174.053558 30.675446,173.330368 29.066763,171.886063 
	C28.850698,158.842285 28.830048,146.519638 28.880737,133.715393 
	C28.968363,129.409973 29.111561,125.581390 28.969179,121.763451 
	C28.786520,116.865524 28.374245,111.976173 28.023369,106.610512 
	C28.324306,82.284729 28.689116,58.431889 28.986660,34.578209 
	C29.087996,26.454231 30.516794,24.356352 38.468895,21.776976 
	C40.647118,21.070438 42.923435,20.666313 45.442616,20.398396 
	C47.716236,20.768276 49.701942,20.945406 51.687725,20.946289 
	C155.919632,20.992619 260.151581,20.988092 364.383423,21.088932 
	C383.990540,21.107901 403.597290,21.540907 423.654999,21.809189 
	C435.777466,21.806030 447.449158,21.776539 459.578766,21.793983 
	C471.706726,21.822136 483.376709,21.803350 495.509155,21.845774 
	C513.639282,21.924938 531.307068,21.942898 548.988037,22.431805 
	C549.019592,47.622303 549.037903,72.341850 549.043274,97.523354 
	C549.022827,115.289955 548.987183,132.594711 549.051147,149.899094 
	C549.057556,151.628525 549.669250,153.355713 549.999878,155.470779 
	C550.917847,158.576401 551.835876,161.295212 552.753906,164.014008 
	C553.512085,166.789459 554.270264,169.564911 555.276978,172.654465 
z"/>
<path fill="#D2D4D3" opacity="1.000000" stroke="none" 
	d="
M388.361389,472.245728 
	C388.120422,469.325165 388.103210,466.599884 388.361481,463.205261 
	C388.435089,458.693787 388.233246,454.851715 388.026642,450.605103 
	C387.726654,442.848816 393.210907,439.095093 397.769684,434.901459 
	C416.450531,417.716736 435.286591,400.700562 453.945251,383.491974 
	C461.024078,376.963287 465.567627,368.703094 469.233124,359.853882 
	C472.587341,351.756134 476.372314,343.836792 480.276367,335.998962 
	C484.099731,338.771271 487.614136,341.383453 491.128540,343.995636 
	C485.918579,354.328735 481.396759,365.084473 475.361938,374.911011 
	C460.769714,398.671692 441.525513,418.725311 422.621277,439.024597 
	C411.655151,450.799957 401.075989,462.935730 389.973511,475.298065 
	C389.252777,473.814911 388.918976,473.127960 388.361389,472.245728 
z"/>
<path fill="#CDCFCE" opacity="1.000000" stroke="none" 
	d="
M179.970337,460.045532 
	C161.311264,441.173218 141.654160,423.163177 124.342865,403.126465 
	C112.739952,389.696808 104.560249,373.328735 94.656372,358.403168 
	C90.373062,351.948090 85.604385,345.815063 81.123779,338.874725 
	C82.840630,337.198395 84.489906,336.183075 86.356079,335.409393 
	C89.404198,337.607544 93.010414,339.000244 94.921181,341.626465 
	C100.637100,349.482697 105.770828,357.770172 110.976395,365.987732 
	C115.550781,373.208893 118.966454,381.325867 128.520950,383.861023 
	C131.358078,384.613800 134.180786,386.703186 136.228561,388.906494 
	C142.201416,395.332977 147.711823,402.186249 153.529633,408.760620 
	C160.452209,416.583405 167.434479,424.357361 174.586945,431.968201 
	C175.551346,432.994385 177.950134,433.678925 179.154968,433.197083 
	C180.424347,432.689362 181.319931,430.689423 181.884964,429.159119 
	C182.317795,427.986908 181.772614,426.487061 182.040009,425.212128 
	C182.405777,423.468170 183.129578,421.799347 183.699936,420.098267 
	C185.180450,421.362366 186.660950,422.626434 188.096832,424.246460 
	C188.351532,425.721527 188.650833,426.840668 188.949646,428.430328 
	C189.270569,435.325378 189.592026,441.749908 189.687988,448.405731 
	C188.088989,450.227417 186.689209,451.795990 185.348373,453.413483 
	C183.532043,455.604553 181.760880,457.833069 179.970337,460.045532 
z"/>
<path fill="#492606" opacity="1.000000" stroke="none" 
	d="
M45.154736,20.123413 
	C42.923435,20.666313 40.647118,21.070438 38.468895,21.776976 
	C30.516794,24.356352 29.087996,26.454231 28.986660,34.578209 
	C28.689116,58.431889 28.324306,82.284729 28.014906,107.070450 
	C28.097876,116.712555 28.151779,125.422104 28.175278,134.590866 
	C27.846264,144.948990 27.567493,154.848587 27.235712,164.746384 
	C27.147959,167.364258 27.072960,167.361740 24.913160,166.606659 
	C24.953407,138.107925 24.939602,110.081024 24.931183,81.582153 
	C24.921631,66.354706 24.906689,51.599239 24.891747,36.843769 
	C24.891747,30.690123 24.891747,24.536474 24.891747,18.066664 
	C26.355494,17.809143 27.587536,17.446373 28.831654,17.398695 
	C34.321442,17.188318 39.814735,16.934887 45.306713,16.935963 
	C155.228149,16.957464 265.149719,16.927551 375.070953,17.095219 
	C431.188141,17.180817 487.304779,17.625765 543.421448,17.955107 
	C545.010986,17.964434 546.597351,18.506506 548.465759,19.356468 
	C548.817444,20.105373 548.888611,20.297979 548.912964,20.584934 
	C548.866028,20.679283 549.025574,20.816956 548.558594,20.758764 
	C530.386414,20.786930 512.681152,20.873287 494.528503,20.813213 
	C482.446411,20.709702 470.811798,20.752623 458.742096,20.588554 
	C446.596130,20.356136 434.885193,20.330706 422.706970,20.191521 
	C420.076324,20.045637 417.913025,19.985075 415.749725,19.985472 
	C320.020569,20.003027 224.291382,20.021858 128.562210,20.050795 
	C100.759712,20.059200 72.957230,20.098354 45.154736,20.123413 
z"/>
<path fill="#EDEBEB" opacity="1.000000" stroke="none" 
	d="
M240.679443,641.480225 
	C265.629395,641.580017 290.457489,642.058472 315.656616,642.712708 
	C310.673126,647.735718 305.312866,652.576538 299.968231,657.434631 
	C298.662811,658.621155 297.408661,659.864136 296.083435,661.410217 
	C291.636108,662.843018 287.236328,663.946838 282.450195,665.094116 
	C281.027100,660.998840 280.244385,656.768372 278.803925,652.775208 
	C278.352661,651.524109 276.239441,650.438232 274.700989,650.083679 
	C264.152710,647.652405 253.551193,645.452576 242.980164,643.117981 
	C242.121811,642.928345 241.362778,642.289062 240.679443,641.480225 
z"/>
<path fill="#4B0E0E" opacity="1.000000" stroke="none" 
	d="
M205.540131,435.004639 
	C211.759750,438.969360 212.940567,441.534393 211.258545,448.535675 
	C208.973221,458.048065 207.329193,467.831757 203.850861,476.901062 
	C201.333008,483.465973 196.365845,489.117706 192.278275,495.029602 
	C191.566315,496.059418 189.797897,496.358826 188.191772,497.012238 
	C187.636566,494.009186 187.060349,490.967621 187.249100,487.974274 
	C187.651672,481.590302 188.450958,475.231354 189.422363,468.251373 
	C193.294876,461.150452 196.832718,454.660309 200.631104,447.931030 
	C202.441132,443.462769 203.990631,439.233704 205.540131,435.004639 
z"/>
<path fill="#EDEBEB" opacity="1.000000" stroke="none" 
	d="
M219.473907,662.902588 
	C219.023651,657.386597 210.308273,651.426392 205.378433,653.781494 
	C202.901566,654.964783 200.844437,657.026611 198.313324,658.876404 
	C197.097733,653.925232 196.166290,648.788757 195.002396,642.370422 
	C224.076630,650.402283 252.187897,658.168091 280.690613,665.987305 
	C279.174438,671.027100 275.419098,671.899231 270.671814,670.852966 
	C262.338013,669.016357 253.982880,667.276672 245.290054,664.910522 
	C243.695541,662.602295 242.447647,660.880005 241.199768,659.157654 
	C240.133362,660.764465 239.066971,662.371277 238.000580,663.978088 
	C234.319275,663.424744 230.653107,662.674866 226.951141,662.389587 
	C224.620850,662.210022 222.236938,662.726440 219.473907,662.902588 
z"/>
<path fill="#F1C191" opacity="1.000000" stroke="none" 
	d="
M505.911194,308.159424 
	C517.849976,290.203796 529.788696,272.248138 542.078857,254.175934 
	C540.487854,274.331818 530.551086,291.054932 518.601074,306.746399 
	C513.734863,313.136139 507.996094,318.861450 502.122803,324.652100 
	C500.416901,323.942810 499.242554,323.470459 498.062500,322.650055 
	C498.380554,321.199310 498.704346,320.096588 499.028107,318.993896 
	C499.028107,318.993896 498.993530,318.994659 499.274933,318.856567 
	C500.047424,317.809692 500.538483,316.900940 501.029572,315.992157 
	C501.029572,315.992157 500.993744,315.995331 501.231232,315.828827 
	C501.654144,315.102936 501.839569,314.543549 502.025024,313.984161 
	C502.025024,313.984161 501.991547,313.994690 502.249268,313.846130 
	C502.679810,313.126190 502.852600,312.554779 503.025421,311.983398 
	C503.025421,311.983398 502.992310,311.993744 503.225494,311.909271 
	C503.648834,311.545319 503.838989,311.265808 504.029175,310.986328 
	C504.029175,310.986328 503.994019,310.995148 504.241302,310.838959 
	C504.667542,310.116455 504.846527,309.550140 505.025452,308.983826 
	C505.025452,308.983826 504.992615,308.994019 505.192322,308.922058 
	C505.644257,308.679352 505.817322,308.449158 505.911194,308.159424 
z"/>
<path fill="#2F4662" opacity="1.000000" stroke="none" 
	d="
M378.194458,682.625732 
	C375.391296,682.990479 372.775269,683.012207 370.159546,682.994324 
	C363.940155,682.951904 359.735535,679.063049 360.106995,672.940796 
	C360.372772,668.559875 358.950745,666.016235 354.372192,664.642578 
	C354.313843,663.341309 354.396362,662.317139 354.899902,661.580994 
	C360.536652,653.339966 368.336487,652.658020 377.067749,655.362610 
	C378.056366,656.514526 379.760803,657.577881 379.916199,658.832947 
	C380.849976,666.375305 381.428070,673.961731 382.138794,681.680176 
	C380.605591,681.918762 379.493683,682.091797 378.194458,682.625732 
z"/>
<path fill="#454443" opacity="1.000000" stroke="none" 
	d="
M549.025574,20.816956 
	C549.025574,20.816956 548.866028,20.679283 549.100830,20.451958 
	C549.335693,20.224632 549.753723,20.032816 549.753723,20.032818 
	C550.834595,24.309582 552.833984,28.581915 552.854614,32.863792 
	C553.063965,76.269394 552.950134,119.676559 552.840454,163.548645 
	C551.835876,161.295212 550.917847,158.576401 550.008911,154.992584 
	C550.005127,136.839249 550.018188,119.550789 549.939026,102.262764 
	C549.931030,100.527664 549.363831,98.795128 549.056213,97.061401 
	C549.037903,72.341850 549.019592,47.622303 548.997681,22.145636 
	C549.004578,21.197998 549.015076,21.007477 549.025574,20.816956 
z"/>
<path fill="#EDEBEB" opacity="1.000000" stroke="none" 
	d="
M377.419983,655.232666 
	C368.336487,652.658020 360.536652,653.339966 354.899902,661.580994 
	C354.396362,662.317139 354.313843,663.341309 353.996704,664.599487 
	C340.290527,662.112000 327.160614,666.464111 313.397583,667.885254 
	C313.942932,667.062439 314.796936,665.976685 315.890564,665.614441 
	C333.835571,659.670532 351.801605,653.789368 369.786774,647.967896 
	C373.549774,646.749878 378.261749,651.066284 377.419983,655.232666 
z"/>
<path fill="#70614D" opacity="1.000000" stroke="none" 
	d="
M24.481369,36.927879 
	C24.906689,51.599239 24.921631,66.354706 24.639845,81.872162 
	C24.226620,84.441086 24.010511,86.247910 24.008606,88.054962 
	C23.981133,114.097321 23.982458,140.139709 23.704594,166.171295 
	C23.250948,166.150040 23.069586,166.139603 22.888220,166.129150 
	C22.447599,165.576599 22.006981,165.024033 21.349508,164.320099 
	C21.746584,122.591217 22.354479,81.013603 23.018646,39.436893 
	C23.031647,38.623196 23.705473,37.820057 24.481369,36.927879 
z"/>
<path fill="#E6E4E4" opacity="1.000000" stroke="none" 
	d="
M200.370575,448.170197 
	C196.832718,454.660309 193.294876,461.150452 189.483368,467.842102 
	C186.226669,465.579987 183.243622,463.116364 180.115463,460.349121 
	C181.760880,457.833069 183.532043,455.604553 185.348373,453.413483 
	C186.689209,451.795990 188.088989,450.227417 190.158661,448.350647 
	C194.026718,448.099579 197.198654,448.134888 200.370575,448.170197 
z"/>
<path fill="#F5F5F5" opacity="1.000000" stroke="none" 
	d="
M491.488586,343.994080 
	C487.614136,341.383453 484.099731,338.771271 480.292572,335.645142 
	C481.040649,330.852173 483.144806,327.609161 488.105072,327.305664 
	C489.785980,329.177612 491.298584,330.728668 492.752472,332.570160 
	C495.463440,334.230225 498.233124,335.599854 501.002808,336.969482 
	C497.951416,339.310516 494.899994,341.651550 491.488586,343.994080 
z"/>
<path fill="#D2D4D3" opacity="1.000000" stroke="none" 
	d="
M492.811188,332.279724 
	C491.298584,330.728668 489.785980,329.177612 488.073242,326.943054 
	C485.796173,322.736633 488.506500,322.050507 490.888977,321.170105 
	C492.342102,321.448578 493.795258,321.727020 495.888794,322.119751 
	C497.042175,322.488708 497.555176,322.743408 498.068176,322.998108 
	C499.242554,323.470459 500.416901,323.942810 501.775055,324.669708 
	C501.928925,327.096130 501.899017,329.267975 501.525909,331.719482 
	C498.392212,332.092682 495.601685,332.186218 492.811188,332.279724 
z"/>
<path fill="#836B53" opacity="1.000000" stroke="none" 
	d="
M86.139175,335.167786 
	C84.489906,336.183075 82.840630,337.198395 81.080307,338.521790 
	C79.348061,336.766296 77.726875,334.702759 76.208199,332.269562 
	C76.985893,331.641449 77.661079,331.382965 79.017372,331.109802 
	C82.625702,331.475891 85.552925,331.856628 88.517136,332.531525 
	C87.749153,333.606354 86.944168,334.387085 86.139175,335.167786 
z"/>
<path fill="#B8A188" opacity="1.000000" stroke="none" 
	d="
M577.092041,197.779083 
	C575.267700,195.651672 573.563599,193.632355 572.365112,191.347809 
	C570.723022,188.217743 569.464783,184.886322 568.014771,181.269424 
	C569.249146,181.917587 570.813049,182.724365 571.712280,183.999802 
	C573.883606,187.079697 575.916748,190.290375 577.630127,193.640366 
	C578.174744,194.705185 577.535278,196.375656 577.092041,197.779083 
z"/>
<path fill="#836B53" opacity="1.000000" stroke="none" 
	d="
M492.752472,332.570190 
	C495.601685,332.186218 498.392212,332.092682 501.504272,332.111572 
	C501.751801,333.750336 501.677734,335.276672 501.303223,336.886230 
	C498.233124,335.599854 495.463440,334.230225 492.752472,332.570190 
z"/>
<path fill="#B8A188" opacity="1.000000" stroke="none" 
	d="
M5.284941,210.301178 
	C6.725747,210.451889 8.539711,210.555527 9.591184,211.504242 
	C11.008769,212.783264 11.839291,214.712936 12.935276,216.716736 
	C10.405354,214.923569 7.861902,212.777054 5.284941,210.301178 
z"/>
<path fill="#B8A188" opacity="1.000000" stroke="none" 
	d="
M12.808543,217.341354 
	C13.280509,217.504822 13.628623,217.981812 13.992598,218.775818 
	C13.567203,218.613525 13.125947,218.134201 12.808543,217.341354 
z"/>
<path fill="#836B53" opacity="1.000000" stroke="none" 
	d="
M549.737915,19.786146 
	C549.753723,20.032816 549.335693,20.224632 549.147766,20.357609 
	C548.888611,20.297979 548.817444,20.105373 548.806274,19.610657 
	C549.228027,19.102510 549.513306,19.179487 549.737915,19.786146 
z"/>
<path fill="#2F4662" opacity="1.000000" stroke="none" 
	d="
M381.159668,683.622681 
	C381.089783,683.573547 381.156342,683.556641 381.140869,683.551758 
	C381.125427,683.546936 381.229553,683.671753 381.159668,683.622681 
z"/>
<path fill="#FCFCFC" opacity="1.000000" stroke="none" 
	d="
M238.383759,664.068909 
	C239.066971,662.371277 240.133362,660.764465 241.199768,659.157654 
	C242.447647,660.880005 243.695541,662.602295 244.977692,664.690674 
	C242.930267,664.757690 240.848587,664.458679 238.383759,664.068909 
z"/>
<path fill="#325579" opacity="1.000000" stroke="none" 
	d="
M305.595795,721.520691 
	C306.047882,721.636292 306.324799,721.920471 306.579742,722.223145 
	C306.586823,722.231506 306.358368,722.438293 306.239746,722.552612 
	C305.965698,722.265686 305.691650,721.978760 305.595795,721.520691 
z"/>
<path fill="#FCFCFC" opacity="1.000000" stroke="none" 
	d="
M86.356079,335.409393 
	C86.944168,334.387085 87.749153,333.606354 88.948273,332.418091 
	C92.553818,328.097504 91.063522,323.967041 89.904785,319.851929 
	C96.285675,313.367615 102.791039,306.996277 108.900795,300.265808 
	C109.729225,299.353241 109.245842,296.088440 108.228470,294.851837 
	C102.015533,287.299896 95.487595,280.006348 89.037270,272.650665 
	C75.178825,256.847137 62.415283,240.400955 56.822090,219.553116 
	C56.494888,218.333511 54.579041,217.540131 53.588123,216.266754 
	C55.573982,215.542862 57.374203,215.100616 59.493347,214.882935 
	C62.139988,215.187439 64.467758,215.338531 66.795433,215.336929 
	C131.097763,215.292877 195.400131,215.271179 259.702362,215.165497 
	C322.503601,215.062271 385.304840,214.905655 448.105774,214.693985 
	C464.417542,214.639008 480.728333,214.290665 497.494476,214.156830 
	C501.966278,214.157745 505.983124,214.078918 510.444397,214.074219 
	C513.579407,214.080566 516.269958,214.012802 519.243896,214.104584 
	C520.630371,214.904556 521.733459,215.545013 522.836609,216.185455 
	C524.911560,218.694580 525.432373,220.784698 522.805115,223.690567 
	C521.175293,225.493256 521.364502,228.817444 520.274536,231.251526 
	C513.708984,245.913315 504.424530,258.698639 493.230988,270.176208 
	C486.964172,276.602051 480.867462,283.195343 474.757721,289.772278 
	C469.622192,295.300507 468.756653,300.041748 473.551971,305.583313 
	C478.472351,311.269409 484.615417,315.897461 490.556152,321.079346 
	C488.506500,322.050507 485.796173,322.736633 487.904907,326.622192 
	C483.144806,327.609161 481.040649,330.852173 479.983643,335.485016 
	C476.372314,343.836792 472.587341,351.756134 469.233124,359.853882 
	C465.567627,368.703094 461.024078,376.963287 453.945251,383.491974 
	C435.286591,400.700562 416.450531,417.716736 397.769684,434.901459 
	C393.210907,439.095093 387.726654,442.848816 387.578125,450.598633 
	C385.344025,451.036591 383.553650,451.076569 381.763245,451.116516 
	C376.294891,447.158142 375.221771,441.020721 373.980865,435.049561 
	C373.273743,431.646790 373.059113,428.141663 372.903809,424.379211 
	C375.382111,423.775269 377.579285,423.474701 380.619690,423.058838 
	C378.337860,418.993805 376.966187,415.818756 374.910492,413.175720 
	C373.765930,411.704163 371.482361,411.118500 369.712067,410.133575 
	C369.488159,407.376038 369.264282,404.618500 369.396912,401.472382 
	C371.363586,400.911346 374.286713,401.005981 374.384399,400.525818 
	C375.596680,394.567169 376.397766,388.524902 377.304718,382.504150 
	C376.761810,382.198853 376.218903,381.893555 375.675995,381.588257 
	C369.995026,384.460114 364.314026,387.331970 358.633057,390.203827 
	C350.453979,391.441803 342.270020,392.649353 334.100922,393.950073 
	C332.851501,394.148987 331.670624,394.778595 330.042969,395.059875 
	C329.686707,383.836426 329.798767,372.761932 329.752380,361.688080 
	C329.744568,359.823212 329.052307,357.961182 329.052063,355.958405 
	C329.934174,355.007080 330.747650,354.248688 330.899811,353.375122 
	C332.626617,343.461853 334.642181,333.573090 335.720856,323.584930 
	C336.177826,319.353485 339.271942,314.546936 335.289368,310.655548 
	C336.071838,310.665527 336.814575,310.492920 336.811035,310.337189 
	C336.688843,304.928619 339.502960,301.039703 343.045135,297.328583 
	C345.676453,294.571747 348.032349,291.502686 350.190613,288.353210 
	C355.938873,279.965118 358.861572,271.004333 355.235992,260.503998 
	C352.793213,261.145630 350.723907,261.653320 348.674927,262.233002 
	C332.513306,266.805420 316.549500,267.222687 300.860687,260.207214 
	C297.987640,258.922485 294.981934,257.831360 291.934265,257.056915 
	C270.744781,251.672409 253.867798,260.066589 239.020889,274.158142 
	C233.549713,279.350952 232.683701,286.126526 235.033875,293.116302 
	C236.404922,297.194031 238.429688,301.051941 240.115479,305.434204 
	C239.720612,314.903931 239.370605,323.948242 239.002716,333.381592 
	C240.349915,337.506439 241.715027,341.242310 243.201416,345.369904 
	C243.531860,348.544373 243.413834,351.406738 244.065079,354.081848 
	C244.500351,355.869873 246.029587,357.391602 246.898743,359.389343 
	C246.204346,361.170044 245.181946,362.615173 245.241791,364.014008 
	C245.518906,370.491272 245.989975,376.965820 246.606689,383.420776 
	C246.975098,387.276611 247.740509,391.094513 247.922089,394.951294 
	C246.654114,395.768188 245.791489,396.563171 244.928864,397.358154 
	C236.370255,395.618683 227.824448,393.811646 219.243698,392.189270 
	C217.202148,391.803253 215.043777,392.035065 212.482391,391.735718 
	C210.697235,388.925079 209.368820,386.361420 208.040405,383.797791 
	C207.514999,383.889526 206.989594,383.981293 206.464188,384.073059 
	C204.962677,387.044769 203.461166,390.016479 201.688339,393.197083 
	C200.418900,396.043457 199.420792,398.680908 198.422668,401.318359 
	C201.070618,401.881500 203.715561,402.459442 206.369232,402.994171 
	C206.845169,403.090027 207.357101,403.007324 207.852386,403.007111 
	C207.226166,410.142151 206.586731,417.276093 205.979675,424.412781 
	C205.703888,427.654907 205.492218,430.902496 205.395782,434.576111 
	C203.990631,439.233704 202.441132,443.462769 200.631104,447.931030 
	C197.198654,448.134888 194.026718,448.099579 190.384125,448.119324 
	C189.592026,441.749908 189.270569,435.325378 189.386017,428.442017 
	C192.875092,427.517090 195.927261,427.051025 198.979431,426.584930 
	C198.949860,425.855682 198.920273,425.126434 198.890701,424.397186 
	C195.307602,424.228302 191.724518,424.059418 188.141449,423.890503 
	C186.660950,422.626434 185.180450,421.362366 183.699936,420.098267 
	C183.129578,421.799347 182.405777,423.468170 182.040009,425.212128 
	C181.772614,426.487061 182.317795,427.986908 181.884964,429.159119 
	C181.319931,430.689423 180.424347,432.689362 179.154968,433.197083 
	C177.950134,433.678925 175.551346,432.994385 174.586945,431.968201 
	C167.434479,424.357361 160.452209,416.583405 153.529633,408.760620 
	C147.711823,402.186249 142.201416,395.332977 136.228561,388.906494 
	C134.180786,386.703186 131.358078,384.613800 128.520950,383.861023 
	C118.966454,381.325867 115.550781,373.208893 110.976395,365.987732 
	C105.770828,357.770172 100.637100,349.482697 94.921181,341.626465 
	C93.010414,339.000244 89.404198,337.607544 86.356079,335.409393 
M155.821381,378.347229 
	C157.687500,375.548035 159.553604,372.748810 161.867737,369.277588 
	C163.723251,372.302795 164.612839,374.868500 166.404999,376.319061 
	C167.816101,377.461182 170.339996,377.228455 172.369629,377.606384 
	C172.556015,377.057709 172.742401,376.509003 172.928787,375.960327 
	C167.937897,366.630798 163.009781,357.266327 157.864639,348.022644 
	C157.314835,347.034851 155.046066,345.945251 154.371231,346.323608 
	C153.243607,346.955811 152.260696,348.671051 152.084717,350.041779 
	C150.951172,358.871613 149.902695,367.719391 149.178741,376.590057 
	C148.985641,378.956024 150.022949,381.422394 150.495392,383.842682 
	C152.138535,382.218414 153.781677,380.594147 155.821381,378.347229 
M114.730431,331.596191 
	C118.082230,328.822998 121.434021,326.049805 124.785820,323.276611 
	C124.621666,322.744812 124.457512,322.212982 124.293358,321.681183 
	C117.281769,322.267670 110.270180,322.854156 103.258591,323.440643 
	C105.976425,328.552673 108.426727,332.556427 114.730431,331.596191 
z"/>
<path fill="#8B5826" opacity="1.000000" stroke="none" 
	d="
M248.327454,394.929443 
	C247.740509,391.094513 246.975098,387.276611 246.606689,383.420776 
	C245.989975,376.965820 245.518906,370.491272 245.241791,364.014008 
	C245.181946,362.615173 246.204346,361.170044 247.324951,359.410583 
	C249.719589,358.843811 251.515747,358.597626 253.315765,358.384033 
	C262.991882,357.235992 272.654327,355.313934 282.349091,355.132416 
	C297.780029,354.843475 313.232758,355.716339 328.676270,356.097839 
	C329.052307,357.961182 329.744568,359.823212 329.752380,361.688080 
	C329.798767,372.761932 329.686707,383.836426 329.811401,395.418335 
	C329.519318,396.752014 329.043732,397.578064 327.967987,398.593872 
	C327.251678,399.216888 327.135559,399.650177 327.019440,400.083466 
	C327.019440,400.083466 327.007812,400.012146 326.712708,399.805115 
	C321.602692,402.699829 316.749512,405.744171 311.984741,408.921082 
	C308.027283,411.559723 304.274139,414.596558 298.669373,414.179871 
	C291.482727,414.691895 284.723114,415.259705 277.667999,415.683624 
	C267.690796,408.669647 258.009125,401.799561 248.327454,394.929443 
M310.111877,373.984772 
	C306.735413,373.328094 303.371460,372.193726 299.980164,372.105103 
	C290.186859,371.849213 280.380524,372.128784 270.583679,371.953491 
	C267.069916,371.890625 264.373260,372.482239 263.372040,376.273438 
	C278.639832,387.636688 296.114105,386.945465 310.111877,373.984772 
z"/>
<path fill="#D2D4D3" opacity="1.000000" stroke="none" 
	d="
M247.922089,394.951294 
	C258.009125,401.799561 267.690796,408.669647 277.677887,416.116577 
	C277.321716,420.451141 276.660126,424.208862 275.793335,428.237366 
	C274.947693,428.705475 274.307190,428.902863 273.304810,429.060242 
	C270.237640,428.470703 267.532288,427.921112 264.826965,427.371521 
	C261.663635,422.607178 258.515564,417.832611 255.332794,413.081299 
	C251.952347,408.034912 248.539001,403.010559 245.034439,397.667358 
	C245.791489,396.563171 246.654114,395.768188 247.922089,394.951294 
z"/>
<path fill="#CDCFCE" opacity="1.000000" stroke="none" 
	d="
M275.998505,427.966583 
	C276.660126,424.208862 277.321716,420.451141 277.973419,416.260468 
	C284.723114,415.259705 291.482727,414.691895 298.952728,414.410095 
	C303.703949,414.324585 305.747864,416.516296 307.116791,420.052826 
	C307.847351,421.940125 309.314117,423.542450 310.448608,425.273407 
	C307.493958,430.717438 304.539276,436.161469 300.937408,441.760193 
	C298.554962,438.546082 296.524750,435.292908 295.148682,431.783234 
	C292.650391,425.411133 289.546143,423.633698 282.945282,425.567444 
	C280.596954,426.255432 278.312256,427.160583 275.998505,427.966583 
z"/>
<path fill="#EDEBEB" opacity="1.000000" stroke="none" 
	d="
M275.793335,428.237366 
	C278.312256,427.160583 280.596954,426.255432 282.945282,425.567444 
	C289.546143,423.633698 292.650391,425.411133 295.148682,431.783234 
	C296.524750,435.292908 298.554962,438.546082 300.652191,441.948059 
	C298.003174,447.023651 289.230682,450.631317 283.946777,448.744080 
	C282.687469,448.294312 281.674316,446.923615 280.750031,445.808929 
	C277.156616,441.475220 273.644501,437.074097 270.416809,432.334656 
	C272.514984,431.837311 274.889099,432.307251 273.666687,429.100220 
	C274.307190,428.902863 274.947693,428.705475 275.793335,428.237366 
z"/>
<path fill="#E6E4E4" opacity="1.000000" stroke="none" 
	d="
M358.797119,390.503418 
	C364.314026,387.331970 369.995026,384.460114 375.675995,381.588257 
	C376.218903,381.893555 376.761810,382.198853 377.304718,382.504150 
	C376.397766,388.524902 375.596680,394.567169 374.384399,400.525818 
	C374.286713,401.005981 371.363586,400.911346 369.381592,401.040222 
	C365.660248,397.598785 362.310699,394.200897 358.797119,390.503418 
z"/>
<path fill="#E6E4E4" opacity="1.000000" stroke="none" 
	d="
M310.681610,425.041443 
	C309.314117,423.542450 307.847351,421.940125 307.116791,420.052826 
	C305.747864,416.516296 303.703949,414.324585 299.379822,414.465881 
	C304.274139,414.596558 308.027283,411.559723 311.984741,408.921082 
	C316.749512,405.744171 321.602692,402.699829 326.744293,399.822693 
	C321.685516,408.301300 316.300049,416.555389 310.681610,425.041443 
z"/>
<path fill="#E6E4E4" opacity="1.000000" stroke="none" 
	d="
M369.630127,410.553711 
	C371.482361,411.118500 373.765930,411.704163 374.910492,413.175720 
	C376.966187,415.818756 378.337860,418.993805 380.619690,423.058838 
	C377.579285,423.474701 375.382111,423.775269 372.835815,423.927643 
	C371.507202,419.510925 370.527710,415.242401 369.630127,410.553711 
z"/>
<path fill="#F5F5F5" opacity="1.000000" stroke="none" 
	d="
M207.933655,402.602600 
	C207.357101,403.007324 206.845169,403.090027 206.369232,402.994171 
	C203.715561,402.459442 201.070618,401.881500 198.422668,401.318359 
	C199.420792,398.680908 200.418900,396.043457 201.953537,393.478790 
	C204.673233,394.057709 206.856400,394.563812 209.039551,395.069946 
	C208.698013,397.446014 208.356461,399.822052 207.933655,402.602600 
z"/>
<path fill="#E6E4E4" opacity="1.000000" stroke="none" 
	d="
M209.288696,394.902832 
	C206.856400,394.563812 204.673233,394.057709 202.224869,393.269897 
	C203.461166,390.016479 204.962677,387.044769 206.464188,384.073059 
	C206.989594,383.981293 207.514999,383.889526 208.040405,383.797791 
	C209.368820,386.361420 210.697235,388.925079 212.047211,391.877167 
	C211.225128,393.088959 210.381470,393.912354 209.288696,394.902832 
z"/>
<path fill="#E6E4E4" opacity="1.000000" stroke="none" 
	d="
M381.844604,451.467468 
	C383.553650,451.076569 385.344025,451.036591 387.582947,451.003113 
	C388.233246,454.851715 388.435089,458.693787 388.364807,462.750793 
	C386.037079,459.249908 383.981506,455.534149 381.844604,451.467468 
z"/>
<path fill="#565453" opacity="1.000000" stroke="none" 
	d="
M273.304810,429.060242 
	C274.889099,432.307251 272.514984,431.837311 270.331909,432.002258 
	C268.283539,430.686462 266.634735,429.339630 264.906464,427.682129 
	C267.532288,427.921112 270.237640,428.470703 273.304810,429.060242 
z"/>
<path fill="#E6E4E4" opacity="1.000000" stroke="none" 
	d="
M327.366577,399.971680 
	C327.135559,399.650177 327.251678,399.216888 327.711823,398.620544 
	C327.941803,398.924988 327.827759,399.392426 327.366577,399.971680 
z"/>
<path fill="#FCFCFC" opacity="1.000000" stroke="none" 
	d="
M33.583237,175.220901 
	C34.588108,167.098007 36.582317,159.422241 36.607613,151.739990 
	C36.736446,112.617126 36.355358,73.492584 36.155045,34.368618 
	C36.144085,32.227440 36.153629,30.086155 36.153629,27.371716 
	C38.387295,27.514347 40.265610,27.634289 43.057762,27.712139 
	C83.430984,27.607168 122.890343,27.517040 162.349747,27.486696 
	C266.081451,27.406925 369.813202,27.377918 473.544861,27.267937 
	C494.019562,27.246229 514.493958,26.952637 534.968506,26.784431 
	C539.854126,26.142847 540.980408,28.432789 540.964111,33.074093 
	C540.788574,83.037277 540.824890,133.001221 540.816101,182.964951 
	C540.815796,184.958328 540.943848,186.951752 540.944214,189.660049 
	C538.864990,194.509506 536.853516,198.644058 534.385132,202.823288 
	C533.096375,202.895676 532.264526,202.948059 531.432617,202.947632 
	C387.238861,202.873535 243.045135,202.780441 98.851379,202.736618 
	C80.209412,202.730957 61.567364,202.979324 42.925354,203.110031 
	C40.212006,200.995773 37.493614,198.887939 34.786797,196.765350 
	C32.370388,194.870499 31.638893,192.620148 32.232964,189.435516 
	C33.076477,184.913681 33.221191,180.261520 33.583237,175.220901 
M302.377869,107.104897 
	C301.486633,106.407066 300.595428,105.709236 299.461121,104.821083 
	C299.461121,112.426437 299.461121,119.239113 299.461121,126.051796 
	C300.035675,126.054115 300.610199,126.056435 301.184753,126.058754 
	C301.184753,121.275093 301.184753,116.491432 301.184753,110.826042 
	C307.022766,115.899536 308.502106,123.005783 314.615631,126.552658 
	C314.615631,118.944572 314.615631,112.147766 314.615631,105.350967 
	C314.068573,105.320427 313.521484,105.289879 312.974426,105.259338 
	C312.974426,110.179581 312.974426,115.099831 312.974426,120.020073 
	C312.474243,120.082542 311.974030,120.145012 311.473846,120.207474 
	C308.590057,116.026962 305.706238,111.846451 302.377869,107.104897 
M236.199677,125.844482 
	C237.372162,125.384491 238.544647,124.924507 239.978287,124.362061 
	C239.847397,133.374619 233.985184,128.623032 229.684799,128.204758 
	C231.293610,132.293610 234.355347,132.699631 237.063812,131.882797 
	C239.097321,131.269501 241.999741,129.266998 242.194778,127.609825 
	C242.841751,122.113060 242.439194,116.492783 242.439194,110.665115 
	C240.912155,111.035980 239.764236,111.684708 238.779465,111.493446 
	C232.715164,110.315712 230.289795,111.293533 229.126938,115.673340 
	C227.736832,120.909119 229.900635,124.417946 236.199677,125.844482 
M182.113281,106.049393 
	C178.725983,105.696068 175.338669,105.342743 171.676620,104.960762 
	C171.676620,112.424744 171.676620,119.125732 171.676620,125.962387 
	C177.713547,125.989502 183.979691,127.516716 186.949173,120.363068 
	C189.175308,115.000175 187.671814,110.196129 182.113281,106.049393 
M363.067871,108.474426 
	C363.067871,109.466103 363.067871,110.457779 363.067871,111.442169 
	C362.604156,111.502190 362.239197,111.672462 362.036865,111.557236 
	C358.855499,109.745354 355.204956,109.719627 353.830444,112.985878 
	C352.581726,115.953171 352.570984,120.037857 353.519745,123.174706 
	C354.581909,126.686707 358.064911,126.903328 361.491669,125.669128 
	C362.647461,125.252853 364.079376,125.603241 365.810028,125.603241 
	C365.810028,119.610466 365.859222,113.508018 365.743256,107.408707 
	C365.729828,106.703812 364.798370,106.016373 364.292542,105.320847 
	C363.884888,106.105919 363.477203,106.890991 363.067871,108.474426 
M399.932251,108.937813 
	C399.757446,107.684586 399.582642,106.431366 399.407837,105.178139 
	C398.837830,105.180077 398.267822,105.182007 397.697784,105.183945 
	C397.432861,107.308586 397.167908,109.433228 397.073700,110.188721 
	C393.671356,111.098076 389.354279,111.004814 388.242615,112.846428 
	C386.645050,115.493118 386.399811,119.858910 387.368134,122.925423 
	C388.606232,126.846344 392.301666,127.125496 396.067871,125.323082 
	C396.930786,124.910110 398.377930,125.717850 399.932312,126.042282 
	C399.932312,120.412956 399.932312,115.129868 399.932251,108.937813 
M337.447021,112.998970 
	C336.965057,115.818954 335.527313,118.941315 336.294403,121.366165 
	C336.943542,123.418175 339.931854,125.433281 342.268036,126.079239 
	C345.551025,126.986992 346.914978,125.630119 348.131134,122.320053 
	C339.722839,124.573494 339.714508,124.571014 338.348938,118.947006 
	C341.971558,118.947006 345.485321,118.947006 348.999512,118.947006 
	C348.473724,110.819748 344.039368,108.405540 337.447021,112.998970 
M378.799133,123.779587 
	C375.170715,124.460342 372.646393,123.668221 372.556305,118.880363 
	C376.219940,118.880363 379.630127,118.880363 383.051056,118.880363 
	C383.296722,114.012299 381.653625,110.871391 376.857574,110.552101 
	C372.920349,110.290001 370.618408,112.701378 369.946289,116.361549 
	C369.206451,120.390114 369.831696,124.161812 374.219482,125.915688 
	C377.706940,127.309677 380.846436,125.816994 382.738983,121.494942 
	C381.192108,122.353561 380.314240,122.840851 378.799133,123.779587 
M201.169495,125.770485 
	C202.110840,124.748589 203.052185,123.726692 203.993530,122.704796 
	C195.869400,124.975914 194.448578,124.520973 194.242752,118.831970 
	C197.644989,118.831970 201.030319,118.831970 204.344116,118.831970 
	C204.855209,112.951057 201.031708,110.448669 197.987747,110.500938 
	C193.783096,110.573120 191.599213,113.100861 191.035019,116.948685 
	C190.070251,123.528282 194.546600,127.770088 201.169495,125.770485 
M332.230682,115.406837 
	C331.085541,111.239822 328.136414,109.764870 324.247925,110.816689 
	C320.354187,111.869904 318.920044,115.099823 319.079987,118.897812 
	C319.231750,122.502571 320.727509,125.347031 324.649078,126.126564 
	C328.385071,126.869232 330.327148,125.780762 331.653442,122.345436 
	C323.354431,124.614616 322.902985,124.472366 322.149750,119.114571 
	C324.833893,119.114571 327.489166,119.020355 330.134430,119.142799 
	C332.471619,119.250992 333.152252,118.333214 332.230682,115.406837 
M266.447021,122.608147 
	C266.130890,121.580536 265.814758,120.552917 265.323853,118.957108 
	C269.262451,118.957108 272.651947,118.957108 276.046051,118.957108 
	C276.376221,114.066551 274.802673,110.988770 270.009277,110.534515 
	C266.309204,110.183868 263.268036,113.169281 262.872955,117.248245 
	C262.416992,121.955048 264.415588,125.478371 268.151917,126.074196 
	C271.375305,126.588211 274.329071,126.181519 275.810760,122.765930 
	C272.509857,122.913277 269.815796,123.033531 266.447021,122.608147 
M218.467270,113.994545 
	C217.703125,110.226997 214.805038,109.959549 212.134995,110.902687 
	C210.473206,111.489677 209.334473,113.557381 207.960983,114.960533 
	C209.513443,116.386978 210.967163,117.946266 212.650131,119.197144 
	C213.956955,120.168457 215.549835,120.754883 218.186218,122.117378 
	C216.662872,122.174156 207.879242,122.501534 207.619736,122.511208 
	C208.765961,126.372925 211.770523,126.814026 214.696793,125.947540 
	C216.399216,125.443443 218.541092,123.667664 218.940155,122.076553 
	C219.843765,118.473885 216.412857,118.148682 214.033600,117.138374 
	C212.678360,116.562897 211.447723,115.694046 210.160965,114.957306 
	C210.376328,114.262733 210.591690,113.568161 210.807068,112.873589 
	C213.160828,113.356003 215.514603,113.838417 218.467270,113.994545 
M250.405807,113.914116 
	C255.105347,112.128342 256.503998,112.910202 256.763794,117.610077 
	C256.918610,120.410477 256.904022,123.220238 256.965576,126.025795 
	C257.745331,125.972496 258.525055,125.919205 259.304810,125.865906 
	C258.985596,121.587936 259.932556,116.517197 257.918457,113.300407 
	C256.487671,111.015244 251.063492,111.230392 247.559799,110.363762 
	C247.559799,116.065338 247.559799,121.049568 247.559799,126.033798 
	C247.952744,126.031265 248.345673,126.028725 248.738617,126.026192 
	C249.133484,122.229141 249.528351,118.432098 250.405807,113.914116 
M286.956909,110.495605 
	C284.770264,110.786728 282.583588,111.077850 280.481628,111.357704 
	C280.481628,116.018448 280.481628,121.028320 280.481628,126.223907 
	C281.378479,125.869530 281.930939,125.764198 281.937408,125.632072 
	C282.082733,122.671700 281.525604,119.483032 282.461731,116.814827 
	C283.252777,114.560257 285.761322,112.908295 286.956909,110.495605 
M412.844666,110.653244 
	C412.844666,113.861969 412.844666,117.070694 412.844666,120.279419 
	C416.648712,115.734505 416.177979,106.936852 413.054840,105.240219 
	C412.979706,106.841705 412.911835,108.289024 412.844666,110.653244 
M423.238464,115.920250 
	C423.238464,112.367218 423.238464,108.814186 423.238464,105.261162 
	C422.629059,105.303238 422.019623,105.345322 421.410217,105.387405 
	C421.410217,110.296745 421.410217,115.206093 421.410217,120.115440 
	C421.838898,120.149956 422.267578,120.184471 422.696289,120.218987 
	C422.870148,119.087654 423.044037,117.956322 423.238464,115.920250 
M225.215820,119.438728 
	C225.215820,116.533836 225.215820,113.628944 225.215820,110.724052 
	C224.683304,110.753693 224.150772,110.783325 223.618256,110.812965 
	C223.618256,115.869034 223.618256,120.925110 223.618256,125.981178 
	C224.150787,125.977158 224.683304,125.973137 225.215836,125.969116 
	C225.215836,124.116928 225.215836,122.264740 225.215820,119.438728 
z"/>
<path fill="#5D3D20" opacity="1.000000" stroke="none" 
	d="
M42.845440,203.446213 
	C61.567364,202.979324 80.209412,202.730957 98.851379,202.736618 
	C243.045135,202.780441 387.238861,202.873535 531.432617,202.947632 
	C532.264526,202.948059 533.096375,202.895676 534.759949,202.920135 
	C540.963684,202.405746 539.807068,207.840439 542.125732,210.080627 
	C535.960449,212.027008 529.795166,213.973389 523.233276,216.052612 
	C521.733459,215.545013 520.630371,214.904556 518.998291,213.835785 
	C516.003479,212.944351 513.537720,212.481232 510.598816,212.010162 
	C437.077667,212.010834 364.029694,212.019470 290.515137,212.011322 
	C217.251541,211.987076 144.454468,211.973312 71.657417,212.014267 
	C70.102066,212.015137 68.547066,212.645309 66.606506,212.992783 
	C63.872223,213.555206 61.523323,214.106781 59.174427,214.658356 
	C57.374203,215.100616 55.573982,215.542862 53.361042,215.988419 
	C45.415901,214.308304 37.883472,212.624893 28.991774,210.637711 
	C34.415283,207.938385 38.590405,205.860382 42.845440,203.446213 
z"/>
<path fill="#F5F5F5" opacity="1.000000" stroke="none" 
	d="
M89.536957,319.893494 
	C91.063522,323.967041 92.553818,328.097504 88.911278,332.123962 
	C85.552925,331.856628 82.625702,331.475891 79.281662,331.023560 
	C79.730156,324.876373 82.922646,320.977478 89.536957,319.893494 
z"/>
<path fill="#B8A188" opacity="1.000000" stroke="none" 
	d="
M22.973148,166.461075 
	C23.069586,166.139603 23.250948,166.150040 23.805748,166.358810 
	C24.372074,166.774902 24.598715,166.948685 24.859106,167.078491 
	C27.072960,167.361740 27.147959,167.364258 27.235712,164.746384 
	C27.567493,154.848587 27.846264,144.948990 28.327862,134.590790 
	C28.510851,134.131485 28.809399,134.196976 28.809399,134.196976 
	C28.830048,146.519638 28.850698,158.842285 28.872429,171.646118 
	C26.935032,170.349182 24.996552,168.571091 22.973148,166.461075 
z"/>
<path fill="#B8A188" opacity="1.000000" stroke="none" 
	d="
M542.497559,210.050369 
	C539.807068,207.840439 540.963684,202.405746 535.216797,202.875473 
	C536.853516,198.644058 538.864990,194.509506 541.106628,190.091721 
	C542.594421,189.815430 543.852112,189.822372 545.487793,189.789825 
	C547.031433,192.169052 548.197021,194.587769 549.585144,197.468460 
	C548.628784,198.665863 547.335571,200.284973 545.743652,202.278061 
	C547.477966,203.292603 548.929932,204.141998 550.494934,205.057495 
	C549.779663,209.711151 545.382629,208.436874 542.497559,210.050369 
z"/>
<path fill="#B8A188" opacity="1.000000" stroke="none" 
	d="
M566.215576,196.885864 
	C567.108276,197.111969 567.612122,197.339828 568.115967,197.567688 
	C563.217896,199.994370 558.319885,202.421051 552.300476,205.403290 
	C554.729065,196.500214 560.220642,196.581085 566.215576,196.885864 
z"/>
<path fill="#E6E4E4" opacity="1.000000" stroke="none" 
	d="
M498.062500,322.650055 
	C497.555176,322.743408 497.042175,322.488708 496.265137,322.122620 
	C496.794067,321.025055 497.587006,320.038849 498.704010,319.023285 
	C498.704346,320.096588 498.380554,321.199310 498.062500,322.650055 
z"/>
<path fill="#E6E4E4" opacity="1.000000" stroke="none" 
	d="
M500.678528,316.029663 
	C500.538483,316.900940 500.047424,317.809692 499.276306,318.873840 
	C499.440002,318.041840 499.883728,317.054474 500.678528,316.029663 
z"/>
<path fill="#E6E4E4" opacity="1.000000" stroke="none" 
	d="
M502.773285,312.154114 
	C502.852600,312.554779 502.679810,313.126190 502.251282,313.863586 
	C502.170746,313.461304 502.345947,312.893066 502.773285,312.154114 
z"/>
<path fill="#E6E4E4" opacity="1.000000" stroke="none" 
	d="
M504.775391,309.155823 
	C504.846527,309.550140 504.667542,310.116455 504.241455,310.857056 
	C504.171326,310.463501 504.348297,309.895691 504.775391,309.155823 
z"/>
<path fill="#E6E4E4" opacity="1.000000" stroke="none" 
	d="
M501.764648,314.145569 
	C501.839569,314.543549 501.654144,315.102936 501.231628,315.846802 
	C501.164490,315.456512 501.334412,314.881744 501.764648,314.145569 
z"/>
<path fill="#B8A188" opacity="1.000000" stroke="none" 
	d="
M570.427368,196.536713 
	C570.387939,196.480392 570.466797,196.593018 570.427368,196.536713 
z"/>
<path fill="#E6E4E4" opacity="1.000000" stroke="none" 
	d="
M505.702637,308.234650 
	C505.817322,308.449158 505.644257,308.679352 505.189636,308.939026 
	C505.075073,308.731262 505.243988,308.491882 505.702637,308.234650 
z"/>
<path fill="#E6E4E4" opacity="1.000000" stroke="none" 
	d="
M503.796173,311.091309 
	C503.838989,311.265808 503.648834,311.545319 503.222595,311.926361 
	C503.178741,311.750732 503.370972,311.473511 503.796173,311.091309 
z"/>
<path fill="#5B3303" opacity="1.000000" stroke="none" 
	d="
M534.879028,26.426699 
	C514.493958,26.952637 494.019562,27.246229 473.544861,27.267937 
	C369.813202,27.377918 266.081451,27.406925 162.349747,27.486696 
	C122.890343,27.517040 83.430984,27.607168 43.513657,27.585051 
	C47.195988,26.335348 51.333694,24.165380 55.476936,24.154751 
	C134.125854,23.952988 212.775436,24.005955 291.424866,24.005951 
	C369.407806,24.005945 447.390747,23.981922 525.373535,24.093094 
	C528.513123,24.097567 531.650940,25.381281 534.879028,26.426699 
z"/>
<path fill="#836B53" opacity="1.000000" stroke="none" 
	d="
M45.442616,20.398396 
	C72.957230,20.098354 100.759712,20.059200 128.562210,20.050795 
	C224.291382,20.021858 320.020569,20.003027 415.749725,19.985472 
	C417.913025,19.985075 420.076324,20.045637 422.694275,20.438335 
	C423.117920,21.129663 423.136353,21.457647 423.204193,21.782856 
	C403.597290,21.540907 383.990540,21.107901 364.383423,21.088932 
	C260.151581,20.988092 155.919632,20.992619 51.687725,20.946289 
	C49.701942,20.945406 47.716236,20.768276 45.442616,20.398396 
z"/>
<path fill="#B8A188" opacity="1.000000" stroke="none" 
	d="
M423.654999,21.809189 
	C423.136353,21.457647 423.117920,21.129663 423.161621,20.552090 
	C434.885193,20.330706 446.596130,20.356136 458.766846,20.747082 
	C459.178955,21.322014 459.143707,21.533497 459.120819,21.747046 
	C447.449158,21.776539 435.777466,21.806030 423.654999,21.809189 
z"/>
<path fill="#565453" opacity="1.000000" stroke="none" 
	d="
M549.043274,97.523354 
	C549.363831,98.795128 549.931030,100.527664 549.939026,102.262764 
	C550.018188,119.550789 550.005127,136.839249 550.009033,154.605774 
	C549.669250,153.355713 549.057556,151.628525 549.051147,149.899094 
	C548.987183,132.594711 549.022827,115.289955 549.043274,97.523354 
z"/>
<path fill="#CDCFCE" opacity="1.000000" stroke="none" 
	d="
M459.578766,21.793983 
	C459.143707,21.533497 459.178955,21.322014 459.201904,20.954069 
	C470.811798,20.752623 482.446411,20.709702 494.572754,21.017174 
	C495.064453,21.367563 495.046722,21.784567 495.046722,21.784567 
	C483.376709,21.803350 471.706726,21.822136 459.578766,21.793983 
z"/>
<path fill="#F5F5F5" opacity="1.000000" stroke="none" 
	d="
M495.509155,21.845774 
	C495.046722,21.784567 495.064453,21.367563 495.020203,21.163605 
	C512.681152,20.873287 530.386414,20.786930 548.558594,20.758764 
	C549.015076,21.007477 549.004578,21.197998 548.984436,21.674686 
	C531.307068,21.942898 513.639282,21.924938 495.509155,21.845774 
z"/>
<path fill="#836B53" opacity="1.000000" stroke="none" 
	d="
M28.880737,133.715393 
	C28.809399,134.196976 28.510851,134.131485 28.358267,134.131561 
	C28.151779,125.422104 28.097876,116.712555 28.052435,107.543060 
	C28.374245,111.976173 28.786520,116.865524 28.969179,121.763451 
	C29.111561,125.581390 28.968363,129.409973 28.880737,133.715393 
z"/>
<path fill="#E6E4E4" opacity="1.000000" stroke="none" 
	d="
M188.096832,424.246460 
	C191.724518,424.059418 195.307602,424.228302 198.890701,424.397186 
	C198.920273,425.126434 198.949860,425.855682 198.979431,426.584930 
	C195.927261,427.051025 192.875092,427.517090 189.386536,427.971466 
	C188.650833,426.840668 188.351532,425.721527 188.096832,424.246460 
z"/>
<path fill="#836B53" opacity="1.000000" stroke="none" 
	d="
M24.913160,166.606659 
	C24.598715,166.948685 24.372074,166.774902 24.078030,166.369614 
	C23.982458,140.139709 23.981133,114.097321 24.008606,88.054962 
	C24.010511,86.247910 24.226620,84.441086 24.634457,82.344139 
	C24.939602,110.081024 24.953407,138.107925 24.913160,166.606659 
z"/>
<path fill="#F7C796" opacity="1.000000" stroke="none" 
	d="
M329.052063,355.958405 
	C313.232758,355.716339 297.780029,354.843475 282.349091,355.132416 
	C272.654327,355.313934 262.991882,357.235992 253.315765,358.384033 
	C251.515747,358.597626 249.719589,358.843811 247.495453,359.053711 
	C246.029587,357.391602 244.500351,355.869873 244.065079,354.081848 
	C243.413834,351.406738 243.531860,348.544373 243.507874,345.199890 
	C248.754242,335.663910 247.763367,333.194275 239.020615,332.992554 
	C239.370605,323.948242 239.720612,314.903931 240.411835,305.597198 
	C241.947876,305.198883 243.194595,305.236023 244.328201,304.896057 
	C248.436340,303.663910 252.429642,301.941315 256.604797,301.059540 
	C271.762482,297.858246 287.042511,298.988495 302.041534,301.634766 
	C313.168793,303.597931 323.960510,307.462982 334.901703,310.480835 
	C339.271942,314.546936 336.177826,319.353485 335.720856,323.584930 
	C334.642181,333.573090 332.626617,343.461853 330.899811,353.375122 
	C330.747650,354.248688 329.934174,355.007080 329.052063,355.958405 
z"/>
<path fill="#8B5928" opacity="1.000000" stroke="none" 
	d="
M335.289368,310.655579 
	C323.960510,307.462982 313.168793,303.597931 302.041534,301.634766 
	C287.042511,298.988495 271.762482,297.858246 256.604797,301.059540 
	C252.429642,301.941315 248.436340,303.663910 244.328201,304.896057 
	C243.194595,305.236023 241.947876,305.198883 240.456696,305.171753 
	C238.429688,301.051941 236.404922,297.194031 235.033875,293.116302 
	C232.683701,286.126526 233.549713,279.350952 239.020889,274.158142 
	C253.867798,260.066589 270.744781,251.672409 291.934265,257.056915 
	C294.981934,257.831360 297.987640,258.922485 300.860687,260.207214 
	C316.549500,267.222687 332.513306,266.805420 348.674927,262.233002 
	C350.723907,261.653320 352.793213,261.145630 355.235992,260.503998 
	C358.861572,271.004333 355.938873,279.965118 350.190613,288.353210 
	C348.032349,291.502686 345.676453,294.571747 343.045135,297.328583 
	C339.502960,301.039703 336.688843,304.928619 336.811035,310.337189 
	C336.814575,310.492920 336.071838,310.665527 335.289368,310.655579 
z"/>
<path fill="#454443" opacity="1.000000" stroke="none" 
	d="
M59.493347,214.882935 
	C61.523323,214.106781 63.872223,213.555206 67.075935,213.002151 
	C142.272354,212.985092 216.613953,212.969543 291.426849,212.966400 
	C358.237335,212.983658 424.576508,212.978867 490.915680,213.038895 
	C492.957275,213.040741 494.998260,213.715836 497.039551,214.077057 
	C480.728333,214.290665 464.417542,214.639008 448.105774,214.693985 
	C385.304840,214.905655 322.503601,215.062271 259.702362,215.165497 
	C195.400131,215.271179 131.097763,215.292877 66.795433,215.336929 
	C64.467758,215.338531 62.139988,215.187439 59.493347,214.882935 
z"/>
<path fill="#F5F5F5" opacity="1.000000" stroke="none" 
	d="
M155.623108,378.658569 
	C153.781677,380.594147 152.138535,382.218414 150.495392,383.842682 
	C150.022949,381.422394 148.985641,378.956024 149.178741,376.590057 
	C149.902695,367.719391 150.951172,358.871613 152.084717,350.041779 
	C152.260696,348.671051 153.243607,346.955811 154.371231,346.323608 
	C155.046066,345.945251 157.314835,347.034851 157.864639,348.022644 
	C163.009781,357.266327 167.937897,366.630798 172.928787,375.960327 
	C172.742401,376.509003 172.556015,377.057709 172.369629,377.606384 
	C170.339996,377.228455 167.816101,377.461182 166.404999,376.319061 
	C164.612839,374.868500 163.723251,372.302795 161.867737,369.277588 
	C159.553604,372.748810 157.687500,375.548035 155.623108,378.658569 
z"/>
<path fill="#565453" opacity="1.000000" stroke="none" 
	d="
M497.494476,214.156815 
	C494.998260,213.715836 492.957275,213.040741 490.915680,213.038895 
	C424.576508,212.978867 358.237335,212.983658 291.438721,212.735306 
	C290.979309,212.491821 290.981689,212.028091 290.981689,212.028091 
	C364.029694,212.019470 437.077667,212.010834 510.478760,212.266922 
	C510.554565,213.021118 510.277283,213.510605 510.000000,214.000092 
	C505.983124,214.078918 501.966278,214.157745 497.494476,214.156815 
z"/>
<path fill="#F5F5F5" opacity="1.000000" stroke="none" 
	d="
M114.370163,331.727295 
	C108.426727,332.556427 105.976425,328.552673 103.258591,323.440643 
	C110.270180,322.854156 117.281769,322.267670 124.293358,321.681183 
	C124.457512,322.212982 124.621666,322.744812 124.785820,323.276611 
	C121.434021,326.049805 118.082230,328.822998 114.370163,331.727295 
z"/>
<path fill="#F1C191" opacity="1.000000" stroke="none" 
	d="
M239.002716,333.381592 
	C247.763367,333.194275 248.754242,335.663910 243.386597,344.808167 
	C241.715027,341.242310 240.349915,337.506439 239.002716,333.381592 
z"/>
<path fill="#454443" opacity="1.000000" stroke="none" 
	d="
M510.444397,214.074219 
	C510.277283,213.510605 510.554565,213.021118 510.951904,212.274872 
	C513.537720,212.481232 516.003479,212.944351 518.714966,213.676254 
	C516.269958,214.012802 513.579407,214.080566 510.444397,214.074219 
z"/>
<path fill="#F9CB9A" opacity="1.000000" stroke="none" 
	d="
M310.419220,374.201233 
	C296.114105,386.945465 278.639832,387.636688 263.372040,376.273438 
	C264.373260,372.482239 267.069916,371.890625 270.583679,371.953491 
	C280.380524,372.128784 290.186859,371.849213 299.980164,372.105103 
	C303.371460,372.193726 306.735413,373.328094 310.419220,374.201233 
z"/>
<path fill="#141414" opacity="1.000000" stroke="none" 
	d="
M302.600159,107.385414 
	C305.706238,111.846451 308.590057,116.026962 311.473846,120.207474 
	C311.974030,120.145012 312.474243,120.082542 312.974426,120.020073 
	C312.974426,115.099831 312.974426,110.179581 312.974426,105.259338 
	C313.521484,105.289879 314.068573,105.320427 314.615631,105.350967 
	C314.615631,112.147766 314.615631,118.944572 314.615631,126.552658 
	C308.502106,123.005783 307.022766,115.899536 301.184753,110.826042 
	C301.184753,116.491432 301.184753,121.275093 301.184753,126.058754 
	C300.610199,126.056435 300.035675,126.054115 299.461121,126.051796 
	C299.461121,119.239113 299.461121,112.426437 299.461121,104.821083 
	C300.595428,105.709236 301.486633,106.407066 302.600159,107.385414 
z"/>
<path fill="#262626" opacity="1.000000" stroke="none" 
	d="
M235.821289,125.879845 
	C229.900635,124.417946 227.736832,120.909119 229.126938,115.673340 
	C230.289795,111.293533 232.715164,110.315712 238.779465,111.493446 
	C239.764236,111.684708 240.912155,111.035980 242.439194,110.665115 
	C242.439194,116.492783 242.841751,122.113060 242.194778,127.609825 
	C241.999741,129.266998 239.097321,131.269501 237.063812,131.882797 
	C234.355347,132.699631 231.293610,132.293610 229.684799,128.204758 
	C233.985184,128.623032 239.847397,133.374619 239.978287,124.362061 
	C238.544647,124.924507 237.372162,125.384491 235.821289,125.879845 
M231.411377,117.650558 
	C232.463348,119.497055 233.253891,121.605240 234.703629,123.053596 
	C235.239014,123.588493 238.225403,122.937904 238.532410,122.188408 
	C239.351028,120.189888 239.775131,117.772415 239.442413,115.665787 
	C239.270233,114.575645 236.776764,112.783157 236.001389,113.076599 
	C234.313217,113.715485 233.054047,115.487938 231.411377,117.650558 
z"/>
<path fill="#262626" opacity="1.000000" stroke="none" 
	d="
M182.470764,106.217072 
	C187.671814,110.196129 189.175308,115.000175 186.949173,120.363068 
	C183.979691,127.516716 177.713547,125.989502 171.676620,125.962387 
	C171.676620,119.125732 171.676620,112.424744 171.676620,104.960762 
	C175.338669,105.342743 178.725983,105.696068 182.470764,106.217072 
M174.073608,120.202698 
	C174.144547,121.337830 174.215485,122.472969 174.299454,123.816528 
	C178.137589,123.839355 182.472794,124.451782 183.872849,120.290260 
	C184.864334,117.343231 184.948029,112.967880 183.371826,110.611443 
	C181.938263,108.468216 177.718735,108.188477 174.073578,106.846642 
	C174.073578,112.007980 174.073578,115.639847 174.073608,120.202698 
z"/>
<path fill="#262626" opacity="1.000000" stroke="none" 
	d="
M363.068695,108.075241 
	C363.477203,106.890991 363.884888,106.105919 364.292542,105.320847 
	C364.798370,106.016373 365.729828,106.703812 365.743256,107.408707 
	C365.859222,113.508018 365.810028,119.610466 365.810028,125.603241 
	C364.079376,125.603241 362.647461,125.252853 361.491669,125.669128 
	C358.064911,126.903328 354.581909,126.686707 353.519745,123.174706 
	C352.570984,120.037857 352.581726,115.953171 353.830444,112.985878 
	C355.204956,109.719627 358.855499,109.745354 362.036865,111.557236 
	C362.239197,111.672462 362.604156,111.502190 363.067871,111.442169 
	C363.067871,110.457779 363.067871,109.466103 363.068695,108.075241 
M362.893646,115.966965 
	C361.867340,112.996597 359.214142,111.728607 357.153046,113.466988 
	C355.581238,114.792694 355.064880,118.064423 355.181213,120.415901 
	C355.243195,121.668777 357.643921,122.805969 358.989075,123.995377 
	C360.363251,122.256569 361.804810,120.564285 363.061920,118.744621 
	C363.357819,118.316284 363.031891,117.458336 362.893646,115.966965 
z"/>
<path fill="#262626" opacity="1.000000" stroke="none" 
	d="
M399.932281,109.392288 
	C399.932312,115.129868 399.932312,120.412956 399.932312,126.042282 
	C398.377930,125.717850 396.930786,124.910110 396.067871,125.323082 
	C392.301666,127.125496 388.606232,126.846344 387.368134,122.925423 
	C386.399811,119.858910 386.645050,115.493118 388.242615,112.846428 
	C389.354279,111.004814 393.671356,111.098076 397.073700,110.188721 
	C397.167908,109.433228 397.432861,107.308586 397.697784,105.183945 
	C398.267822,105.182007 398.837830,105.180077 399.407837,105.178139 
	C399.582642,106.431366 399.757446,107.684586 399.932281,109.392288 
M390.391479,123.027855 
	C392.375275,122.703728 395.744324,122.870689 396.067902,121.957985 
	C396.853424,119.742180 396.635925,116.901466 395.943970,114.573730 
	C395.693512,113.731346 391.852783,112.863525 391.522217,113.331017 
	C390.238434,115.146454 389.550903,117.453888 388.981354,119.665733 
	C388.783234,120.435265 389.569672,121.458298 390.391479,123.027855 
z"/>
<path fill="#141414" opacity="1.000000" stroke="none" 
	d="
M337.695740,112.724251 
	C344.039368,108.405540 348.473724,110.819748 348.999512,118.947006 
	C345.485321,118.947006 341.971558,118.947006 338.348938,118.947006 
	C339.714508,124.571014 339.722839,124.573494 348.131134,122.320053 
	C346.914978,125.630119 345.551025,126.986992 342.268036,126.079239 
	C339.931854,125.433281 336.943542,123.418175 336.294403,121.366165 
	C335.527313,118.941315 336.965057,115.818954 337.695740,112.724251 
M339.653931,113.851715 
	C339.171143,114.759216 338.688324,115.666710 338.126190,116.723373 
	C341.123383,116.723373 343.669922,116.723373 346.494080,116.723373 
	C345.641907,112.750275 343.346588,112.252228 339.653931,113.851715 
z"/>
<path fill="#141414" opacity="1.000000" stroke="none" 
	d="
M379.117737,123.553864 
	C380.314240,122.840851 381.192108,122.353561 382.738983,121.494942 
	C380.846436,125.816994 377.706940,127.309677 374.219482,125.915688 
	C369.831696,124.161812 369.206451,120.390114 369.946289,116.361549 
	C370.618408,112.701378 372.920349,110.290001 376.857574,110.552101 
	C381.653625,110.871391 383.296722,114.012299 383.051056,118.880363 
	C379.630127,118.880363 376.219940,118.880363 372.556305,118.880363 
	C372.646393,123.668221 375.170715,124.460342 379.117737,123.553864 
M373.324585,116.938995 
	C375.675262,116.938995 378.025940,116.938995 380.376617,116.938995 
	C380.548431,116.407455 380.720276,115.875923 380.892090,115.344383 
	C379.424988,114.495995 377.727234,112.729843 376.547882,113.026268 
	C374.994751,113.416656 373.848999,115.427895 373.324585,116.938995 
z"/>
<path fill="#141414" opacity="1.000000" stroke="none" 
	d="
M200.819656,125.886642 
	C194.546600,127.770088 190.070251,123.528282 191.035019,116.948685 
	C191.599213,113.100861 193.783096,110.573120 197.987747,110.500938 
	C201.031708,110.448669 204.855209,112.951057 204.344116,118.831970 
	C201.030319,118.831970 197.644989,118.831970 194.242752,118.831970 
	C194.448578,124.520973 195.869400,124.975914 203.993530,122.704796 
	C203.052185,123.726692 202.110840,124.748589 200.819656,125.886642 
M198.279877,116.975952 
	C199.459091,116.888283 200.638290,116.800613 201.817505,116.712944 
	C201.954651,116.231407 202.091812,115.749870 202.228958,115.268326 
	C200.572906,114.447495 198.908691,112.986618 197.263397,113.007652 
	C195.938919,113.024597 194.637360,114.833496 193.325623,115.847328 
	C193.557877,116.223564 193.790131,116.599808 194.022385,116.976044 
	C195.153229,116.976044 196.284073,116.976044 198.279877,116.975952 
z"/>
<path fill="#141414" opacity="1.000000" stroke="none" 
	d="
M332.309082,115.799179 
	C333.152252,118.333214 332.471619,119.250992 330.134430,119.142799 
	C327.489166,119.020355 324.833893,119.114571 322.149750,119.114571 
	C322.902985,124.472366 323.354431,124.614616 331.653442,122.345436 
	C330.327148,125.780762 328.385071,126.869232 324.649078,126.126564 
	C320.727509,125.347031 319.231750,122.502571 319.079987,118.897812 
	C318.920044,115.099823 320.354187,111.869904 324.247925,110.816689 
	C328.136414,109.764870 331.085541,111.239822 332.309082,115.799179 
M324.718536,112.896278 
	C323.244049,113.514717 321.769562,114.133163 320.295105,114.751602 
	C320.883484,115.387947 321.471863,116.024284 322.060272,116.660629 
	C324.668396,116.660629 327.276550,116.660629 329.884674,116.660629 
	C330.069550,116.201591 330.254425,115.742561 330.439301,115.283524 
	C328.809723,114.441460 327.180176,113.599396 324.718536,112.896278 
z"/>
<path fill="#141414" opacity="1.000000" stroke="none" 
	d="
M266.784363,122.880966 
	C269.815796,123.033531 272.509857,122.913277 275.810760,122.765930 
	C274.329071,126.181519 271.375305,126.588211 268.151917,126.074196 
	C264.415588,125.478371 262.416992,121.955048 262.872955,117.248245 
	C263.268036,113.169281 266.309204,110.183868 270.009277,110.534515 
	C274.802673,110.988770 276.376221,114.066551 276.046051,118.957108 
	C272.651947,118.957108 269.262451,118.957108 265.323853,118.957108 
	C265.814758,120.552917 266.130890,121.580536 266.784363,122.880966 
M267.693573,113.101631 
	C266.878815,114.164986 266.064026,115.228340 264.851990,116.810150 
	C268.410431,116.810150 270.991669,116.810150 273.572876,116.810150 
	C273.775116,116.293480 273.977356,115.776817 274.179596,115.260147 
	C272.290314,114.460327 270.401031,113.660500 267.693573,113.101631 
z"/>
<path fill="#141414" opacity="1.000000" stroke="none" 
	d="
M218.167816,114.157684 
	C215.514603,113.838417 213.160828,113.356003 210.807068,112.873589 
	C210.591690,113.568161 210.376328,114.262733 210.160965,114.957306 
	C211.447723,115.694046 212.678360,116.562897 214.033600,117.138374 
	C216.412857,118.148682 219.843765,118.473885 218.940155,122.076553 
	C218.541092,123.667664 216.399216,125.443443 214.696793,125.947540 
	C211.770523,126.814026 208.765961,126.372925 207.619736,122.511208 
	C207.879242,122.501534 216.662872,122.174156 218.186218,122.117378 
	C215.549835,120.754883 213.956955,120.168457 212.650131,119.197144 
	C210.967163,117.946266 209.513443,116.386978 207.960983,114.960533 
	C209.334473,113.557381 210.473206,111.489677 212.134995,110.902687 
	C214.805038,109.959549 217.703125,110.226997 218.167816,114.157684 
z"/>
<path fill="#141414" opacity="1.000000" stroke="none" 
	d="
M250.164520,114.274582 
	C249.528351,118.432098 249.133484,122.229141 248.738617,126.026192 
	C248.345673,126.028725 247.952744,126.031265 247.559799,126.033798 
	C247.559799,121.049568 247.559799,116.065338 247.559799,110.363762 
	C251.063492,111.230392 256.487671,111.015244 257.918457,113.300407 
	C259.932556,116.517197 258.985596,121.587936 259.304810,125.865906 
	C258.525055,125.919205 257.745331,125.972496 256.965576,126.025795 
	C256.904022,123.220238 256.918610,120.410477 256.763794,117.610077 
	C256.503998,112.910202 255.105347,112.128342 250.164520,114.274582 
z"/>
<path fill="#141414" opacity="1.000000" stroke="none" 
	d="
M287.233337,110.742615 
	C285.761322,112.908295 283.252777,114.560257 282.461731,116.814827 
	C281.525604,119.483032 282.082733,122.671700 281.937408,125.632072 
	C281.930939,125.764198 281.378479,125.869530 280.481628,126.223907 
	C280.481628,121.028320 280.481628,116.018448 280.481628,111.357704 
	C282.583588,111.077850 284.770264,110.786728 287.233337,110.742615 
z"/>
<path fill="#262626" opacity="1.000000" stroke="none" 
	d="
M412.844299,110.194794 
	C412.911835,108.289024 412.979706,106.841705 413.054840,105.240219 
	C416.177979,106.936852 416.648712,115.734505 412.844666,120.279419 
	C412.844666,117.070694 412.844666,113.861969 412.844299,110.194794 
z"/>
<path fill="#141414" opacity="1.000000" stroke="none" 
	d="
M423.228210,116.372620 
	C423.044037,117.956322 422.870148,119.087654 422.696289,120.218987 
	C422.267578,120.184471 421.838898,120.149956 421.410217,120.115440 
	C421.410217,115.206093 421.410217,110.296745 421.410217,105.387405 
	C422.019623,105.345322 422.629059,105.303238 423.238464,105.261162 
	C423.238464,108.814186 423.238464,112.367218 423.228210,116.372620 
z"/>
<path fill="#141414" opacity="1.000000" stroke="none" 
	d="
M225.215820,119.925644 
	C225.215836,122.264740 225.215836,124.116928 225.215836,125.969116 
	C224.683304,125.973137 224.150787,125.977158 223.618256,125.981178 
	C223.618256,120.925110 223.618256,115.869034 223.618256,110.812965 
	C224.150772,110.783325 224.683304,110.753693 225.215820,110.724052 
	C225.215820,113.628944 225.215820,116.533836 225.215820,119.925644 
z"/>
<path fill="#70614D" opacity="1.000000" stroke="none" 
	d="
M290.515137,212.011322 
	C290.981689,212.028091 290.979309,212.491821 290.967438,212.722900 
	C216.613953,212.969543 142.272354,212.985092 67.461319,212.991287 
	C68.547066,212.645309 70.102066,212.015137 71.657417,212.014267 
	C144.454468,211.973312 217.251541,211.987076 290.515137,212.011322 
z"/>
<path fill="#F5F5F5" opacity="1.000000" stroke="none" 
	d="
M231.515472,117.223831 
	C233.054047,115.487938 234.313217,113.715485 236.001389,113.076599 
	C236.776764,112.783157 239.270233,114.575645 239.442413,115.665787 
	C239.775131,117.772415 239.351028,120.189888 238.532410,122.188408 
	C238.225403,122.937904 235.239014,123.588493 234.703629,123.053596 
	C233.253891,121.605240 232.463348,119.497055 231.515472,117.223831 
z"/>
<path fill="#FCFCFC" opacity="1.000000" stroke="none" 
	d="
M174.073593,119.737206 
	C174.073578,115.639847 174.073578,112.007980 174.073578,106.846642 
	C177.718735,108.188477 181.938263,108.468216 183.371826,110.611443 
	C184.948029,112.967880 184.864334,117.343231 183.872849,120.290260 
	C182.472794,124.451782 178.137589,123.839355 174.299454,123.816528 
	C174.215485,122.472969 174.144547,121.337830 174.073593,119.737206 
z"/>
<path fill="#F5F5F5" opacity="1.000000" stroke="none" 
	d="
M362.942841,116.382492 
	C363.031891,117.458336 363.357819,118.316284 363.061920,118.744621 
	C361.804810,120.564285 360.363251,122.256569 358.989075,123.995377 
	C357.643921,122.805969 355.243195,121.668777 355.181213,120.415901 
	C355.064880,118.064423 355.581238,114.792694 357.153046,113.466988 
	C359.214142,111.728607 361.867340,112.996597 362.942841,116.382492 
z"/>
<path fill="#FCFCFC" opacity="1.000000" stroke="none" 
	d="
M390.148956,122.696701 
	C389.569672,121.458298 388.783234,120.435265 388.981354,119.665733 
	C389.550903,117.453888 390.238434,115.146454 391.522217,113.331017 
	C391.852783,112.863525 395.693512,113.731346 395.943970,114.573730 
	C396.635925,116.901466 396.853424,119.742180 396.067902,121.957985 
	C395.744324,122.870689 392.375275,122.703728 390.148956,122.696701 
z"/>
<path fill="#F5F5F5" opacity="1.000000" stroke="none" 
	d="
M339.946777,113.558197 
	C343.346588,112.252228 345.641907,112.750275 346.494080,116.723373 
	C343.669922,116.723373 341.123383,116.723373 338.126190,116.723373 
	C338.688324,115.666710 339.171143,114.759216 339.946777,113.558197 
z"/>
<path fill="#F5F5F5" opacity="1.000000" stroke="none" 
	d="
M372.926331,116.840607 
	C373.848999,115.427895 374.994751,113.416656 376.547882,113.026268 
	C377.727234,112.729843 379.424988,114.495995 380.892090,115.344383 
	C380.720276,115.875923 380.548431,116.407455 380.376617,116.938995 
	C378.025940,116.938995 375.675262,116.938995 372.926331,116.840607 
z"/>
<path fill="#F5F5F5" opacity="1.000000" stroke="none" 
	d="
M197.847397,116.975998 
	C196.284073,116.976044 195.153229,116.976044 194.022385,116.976044 
	C193.790131,116.599808 193.557877,116.223564 193.325623,115.847328 
	C194.637360,114.833496 195.938919,113.024597 197.263397,113.007652 
	C198.908691,112.986618 200.572906,114.447495 202.228958,115.268326 
	C202.091812,115.749870 201.954651,116.231407 201.817505,116.712944 
	C200.638290,116.800613 199.459091,116.888283 197.847397,116.975998 
z"/>
<path fill="#EDEBEB" opacity="1.000000" stroke="none" 
	d="
M325.134583,112.826805 
	C327.180176,113.599396 328.809723,114.441460 330.439301,115.283524 
	C330.254425,115.742561 330.069550,116.201591 329.884674,116.660629 
	C327.276550,116.660629 324.668396,116.660629 322.060272,116.660629 
	C321.471863,116.024284 320.883484,115.387947 320.295105,114.751602 
	C321.769562,114.133163 323.244049,113.514717 325.134583,112.826805 
z"/>
<path fill="#EDEBEB" opacity="1.000000" stroke="none" 
	d="
M268.102661,112.981155 
	C270.401031,113.660500 272.290314,114.460327 274.179596,115.260147 
	C273.977356,115.776817 273.775116,116.293480 273.572876,116.810150 
	C270.991669,116.810150 268.410431,116.810150 264.851990,116.810150 
	C266.064026,115.228340 266.878815,114.164986 268.102661,112.981155 
z"/>
</svg>